<?xml version="1.0" encoding="UTF-8" standalone="no"?>
<svg
   version="1.1"
   width="841.88977pt"
   height="595.27557pt"
   id="svg13"
   viewBox="0 0 841.88977 595.27557"
   sodipodi:docname="Final Logo - Globetrade Corp - final.cdr"
   xmlns:inkscape="http://www.inkscape.org/namespaces/inkscape"
   xmlns:sodipodi="http://sodipodi.sourceforge.net/DTD/sodipodi-0.dtd"
   xmlns="http://www.w3.org/2000/svg"
   xmlns:svg="http://www.w3.org/2000/svg">
  <defs
     id="defs13" />
  <sodipodi:namedview
     id="namedview13"
     pagecolor="#ffffff"
     bordercolor="#000000"
     borderopacity="0.25"
     inkscape:showpageshadow="2"
     inkscape:pageopacity="0.0"
     inkscape:pagecheckerboard="0"
     inkscape:deskcolor="#d1d1d1"
     inkscape:document-units="pt" />
  <g
     id="Layer1000">
    <path
       d="m 263.074,363.3976 h 4.7873 v 9.5046 c -1.3046,0.9549 -2.8653,1.7297 -4.6825,2.3238 -1.8167,0.5942 -3.5641,0.8912 -5.2411,0.8912 -2.4463,0 -4.6593,-0.5537 -6.6395,-1.6598 -1.9796,-1.1068 -3.5408,-2.6209 -4.6819,-4.5429 -1.1417,-1.922 -1.7125,-4.0706 -1.7125,-6.4471 0,-2.3526 0.5825,-4.4896 1.7474,-6.4116 1.165,-1.922 2.7661,-3.4306 4.8044,-4.5251 2.0384,-1.0951 4.304,-1.6427 6.7963,-1.6427 1.8172,0 3.5935,0.3265 5.3293,0.9788 1.7352,0.6523 3.2321,1.5373 4.4895,2.6557 l -3.1096,3.9482 c -0.9083,-0.8618 -1.9569,-1.5374 -3.1445,-2.0268 -1.1883,-0.4887 -2.3765,-0.7337 -3.5647,-0.7337 -1.421,0 -2.7195,0.3436 -3.8961,1.0308 -1.176,0.6872 -2.1021,1.6194 -2.7777,2.7954 -0.6755,1.1766 -1.0136,2.4867 -1.0136,3.931 0,1.4449 0.3436,2.7666 1.0308,3.9665 0.6872,1.1993 1.6194,2.1431 2.7954,2.8303 1.1766,0.6873 2.4751,1.0309 3.8961,1.0309 0.7227,0 1.503,-0.1225 2.3415,-0.3669 0.8385,-0.245 1.6538,-0.577 2.4457,-0.9959 z m 9.6094,-12.125 h 5.5211 v 19.6378 h 10.4828 v 4.8222 h -16.0039 z m 30.6798,-0.3846 c 2.4463,0 4.6709,0.5476 6.6744,1.6427 2.0035,1.0945 3.5812,2.6031 4.7346,4.5251 1.1533,1.922 1.7296,4.059 1.7296,6.4116 0,2.3532 -0.5763,4.4963 -1.7296,6.4299 -1.1534,1.9331 -2.7311,3.4533 -4.7346,4.5601 -2.0035,1.1061 -4.2281,1.6598 -6.6744,1.6598 -2.4456,0 -4.6708,-0.5537 -6.6737,-1.6598 -2.0035,-1.1068 -3.5818,-2.6209 -4.7352,-4.5429 -1.1527,-1.922 -1.7297,-4.0706 -1.7297,-6.4471 0,-2.3526 0.577,-4.4896 1.7297,-6.4116 1.1534,-1.922 2.7256,-3.4306 4.7175,-4.5251 1.9918,-1.0951 4.2225,-1.6427 6.6914,-1.6427 z m 0.0699,4.8222 c -1.3512,0 -2.6086,0.3436 -3.7736,1.0308 -1.165,0.6872 -2.0849,1.6249 -2.7605,2.8132 -0.6756,1.1882 -1.0137,2.4922 -1.0137,3.9132 0,1.4449 0.3436,2.7605 1.0308,3.9487 0.6873,1.1883 1.6078,2.1315 2.7605,2.8304 1.1534,0.6988 2.4053,1.0486 3.7565,1.0486 1.3511,0 2.5914,-0.3436 3.7215,-1.0309 1.13,-0.6872 2.0267,-1.631 2.6907,-2.8303 0.6639,-1.1999 0.9959,-2.5216 0.9959,-3.9665 0,-1.421 -0.332,-2.725 -0.9959,-3.9132 -0.664,-1.1883 -1.5607,-2.126 -2.6907,-2.8132 -1.1301,-0.6872 -2.3704,-1.0308 -3.7215,-1.0308 z m 27.9542,-4.4376 c 2.7023,0 4.8338,0.5476 6.3944,1.6421 1.5606,1.0952 2.341,2.586 2.341,4.4731 0,1.3046 -0.3786,2.4402 -1.1356,3.4067 -0.757,0.9671 -1.7879,1.6249 -3.0925,1.974 1.5845,0.3032 2.8304,1.0076 3.7393,2.1144 0.9083,1.1067 1.3628,2.4634 1.3628,4.0706 0,2.0966 -0.8269,3.7509 -2.4812,4.9618 -1.6537,1.2115 -3.9016,1.8173 -6.7442,1.8173 h -11.6355 v -24.46 z m -0.2793,9.8538 c 1.048,0 1.8693,-0.2388 2.4634,-0.716 0.5935,-0.4777 0.8906,-1.1478 0.8906,-2.0096 0,-0.8385 -0.2971,-1.4908 -0.8906,-1.9569 -0.5941,-0.4655 -1.4154,-0.6872 -2.4634,-0.6639 h -5.4512 v 5.3464 z m 0,10.0988 c 1.304,0 2.3293,-0.2621 3.0747,-0.7864 0.7454,-0.5243 1.1184,-1.2519 1.1184,-2.1842 0,-0.885 -0.373,-1.5839 -1.1184,-2.0965 -0.7454,-0.5121 -1.7707,-0.7571 -3.0747,-0.7338 h -5.4512 v 5.8009 z m 13.9073,-19.9526 h 18.6241 v 4.5778 h -13.1031 v 5.311 h 11.7758 v 4.5777 h -11.7758 v 5.4157 h 13.4877 v 4.5778 h -19.0087 z m 20.9301,0 h 20.442 v 4.6826 h -7.478 v 19.7774 h -5.521 v -19.7774 h -7.443 z m 38.437,24.46 -3.8783,-6.9886 h -0.5243 -5.1014 v 6.9886 h -5.521 v -24.46 h 10.6224 c 3.1917,0 5.6607,0.7399 7.4081,2.2191 1.7469,1.4792 2.6203,3.5696 2.6203,6.2719 0,1.8871 -0.3902,3.5004 -1.1705,4.84 -0.7803,1.3389 -1.9159,2.3581 -3.4067,3.0569 l 5.2062,8.0721 z m -9.504,-11.6013 h 5.1014 c 1.5374,0 2.7195,-0.3552 3.547,-1.0657 0.8269,-0.7105 1.2403,-1.753 1.2403,-3.1274 0,-1.3512 -0.4134,-2.3697 -1.2403,-3.057 -0.8275,-0.6872 -2.0096,-1.0308 -3.547,-1.0308 h -5.1014 z m 37.8429,11.6013 -1.922,-4.7524 H 419.478 l -1.922,4.7524 h -5.6956 l 10.6225,-24.46 h 5.6955 l 10.4479,24.46 z m -11.4267,-9.1899 h 7.7223 l -3.8434,-9.5047 z m 30.2609,-15.2701 c 2.4922,0 4.7168,0.5182 6.6737,1.5552 1.9569,1.0363 3.4771,2.4806 4.56,4.3327 1.0835,1.8522 1.625,3.9659 1.625,6.3424 0,2.3759 -0.5531,4.4896 -1.6599,6.3418 -1.1062,1.8522 -2.6496,3.2964 -4.6298,4.3328 -1.9802,1.0369 -4.2397,1.5551 -6.7791,1.5551 h -10.168 v -24.46 z m 0.1396,19.8124 c 1.3512,0 2.5682,-0.3204 3.6517,-0.961 1.0829,-0.6401 1.9275,-1.5313 2.5333,-2.673 0.6057,-1.141 0.9083,-2.4456 0.9083,-3.9132 0,-1.4681 -0.3203,-2.7838 -0.961,-3.9487 -0.6407,-1.165 -1.5141,-2.0678 -2.6208,-2.7079 -1.1062,-0.6406 -2.3581,-0.961 -3.7559,-0.961 h -4.7523 v 15.1648 z m 16.353,-19.8124 h 18.6241 v 4.5778 h -13.1031 v 5.311 h 11.7758 v 4.5777 h -11.7758 v 5.4157 h 13.4877 v 4.5778 h -19.0087 z m 49.2341,7.6525 c -0.8385,-1.0014 -1.8228,-1.7878 -2.9529,-2.3587 -1.1294,-0.5708 -2.265,-0.8562 -3.4066,-0.8562 -1.3745,0 -2.6325,0.3381 -3.7736,1.0136 -1.1417,0.6756 -2.0384,1.5956 -2.6907,2.7605 -0.6523,1.1644 -0.9788,2.4574 -0.9788,3.8784 0,1.4209 0.3265,2.72 0.9788,3.896 0.6523,1.1766 1.549,2.1082 2.6907,2.7954 1.1411,0.6873 2.3991,1.0309 3.7736,1.0309 1.0951,0 2.2074,-0.2622 3.3368,-0.7859 1.1301,-0.5242 2.1376,-1.2292 3.0227,-2.1143 l 3.2499,3.5292 c -1.3046,1.3512 -2.8365,2.423 -4.595,3.215 -1.759,0.7919 -3.5236,1.1882 -5.2937,1.1882 -2.3998,0 -4.5778,-0.5537 -6.5347,-1.6598 -1.9563,-1.1068 -3.4943,-2.627 -4.6121,-4.5601 -1.1184,-1.9336 -1.6776,-4.0883 -1.6776,-6.4648 0,-2.3526 0.5708,-4.4841 1.7125,-6.3945 1.1411,-1.9097 2.7078,-3.4128 4.6997,-4.5073 1.9918,-1.0951 4.1992,-1.6427 6.6216,-1.6427 1.7707,0 3.5176,0.3669 5.2411,1.1013 1.7242,0.7337 3.1917,1.7296 4.4033,2.9871 z m 17.4714,-8.0371 c 2.4463,0 4.6708,0.5476 6.6743,1.6427 2.0035,1.0945 3.5813,2.6031 4.7346,4.5251 1.1533,1.922 1.7297,4.059 1.7297,6.4116 0,2.3532 -0.5764,4.4963 -1.7297,6.4299 -1.1533,1.9331 -2.7311,3.4533 -4.7346,4.5601 -2.0035,1.1061 -4.228,1.6598 -6.6743,1.6598 -2.4457,0 -4.6709,-0.5537 -6.6738,-1.6598 -2.0034,-1.1068 -3.5818,-2.6209 -4.7352,-4.5429 -1.1527,-1.922 -1.7296,-4.0706 -1.7296,-6.4471 0,-2.3526 0.5769,-4.4896 1.7296,-6.4116 1.1534,-1.922 2.7256,-3.4306 4.7175,-4.5251 1.9918,-1.0951 4.2225,-1.6427 6.6915,-1.6427 z m 0.0698,4.8222 c -1.3512,0 -2.6086,0.3436 -3.7736,1.0308 -1.165,0.6872 -2.0849,1.6249 -2.7605,2.8132 -0.6756,1.1882 -1.0137,2.4922 -1.0137,3.9132 0,1.4449 0.3436,2.7605 1.0308,3.9487 0.6873,1.1883 1.6078,2.1315 2.7606,2.8304 1.1533,0.6988 2.4052,1.0486 3.7564,1.0486 1.3511,0 2.5914,-0.3436 3.7215,-1.0309 1.13,-0.6872 2.0267,-1.631 2.6907,-2.8303 0.6639,-1.1999 0.9959,-2.5216 0.9959,-3.9665 0,-1.421 -0.332,-2.725 -0.9959,-3.9132 -0.664,-1.1883 -1.5607,-2.126 -2.6907,-2.8132 -1.1301,-0.6872 -2.3704,-1.0308 -3.7215,-1.0308 z m 31.7278,20.0224 -3.8783,-6.9886 h -0.5243 -5.1015 v 6.9886 h -5.521 v -24.46 h 10.6225 c 3.1917,0 5.6606,0.7399 7.4081,2.2191 1.7468,1.4792 2.6202,3.5696 2.6202,6.2719 0,1.8871 -0.3901,3.5004 -1.1705,4.84 -0.7803,1.3389 -1.9158,2.3581 -3.4066,3.0569 l 5.2062,8.0721 z m -9.5041,-11.6013 h 5.1015 c 1.5373,0 2.7194,-0.3552 3.5469,-1.0657 0.8269,-0.7105 1.2403,-1.753 1.2403,-3.1274 0,-1.3512 -0.4134,-2.3697 -1.2403,-3.057 -0.8275,-0.6872 -2.0096,-1.0308 -3.5469,-1.0308 h -5.1015 z m 30.1555,-12.8587 c 3.1213,0 5.5327,0.7399 7.233,2.2191 1.7002,1.4792 2.551,3.5696 2.551,6.2719 0,2.842 -0.8563,5.0494 -2.5682,6.6217 -1.7125,1.5723 -4.1178,2.3587 -7.2158,2.3587 h -4.8571 v 6.9886 h -5.521 v -24.46 z m -0.2799,12.8587 c 1.5613,0 2.755,-0.3552 3.5819,-1.0657 0.8268,-0.7105 1.2403,-1.753 1.2403,-3.1274 0,-1.3512 -0.4135,-2.3697 -1.2403,-3.057 -0.8269,-0.6872 -2.0206,-1.0308 -3.5819,-1.0308 h -4.5772 v 8.2809 z"
       style="fill:#004088;fill-rule:evenodd"
       id="path1" />
    <path
       d="m 279.9029,404.4506 c 0.7595,0 1.3995,-0.6168 1.4945,-1.2808 l 0.7834,-5.4806 5.385,-8.5877 c 0.0949,-0.1421 0.1899,-0.403 0.2138,-0.5696 0.0949,-0.6879 -0.4508,-1.2569 -1.1393,-1.2569 -0.403,0 -0.8538,0.166 -1.1386,0.5451 l -4.2225,6.833 -2.3251,-6.833 c -0.142,-0.3791 -0.5457,-0.5451 -0.9487,-0.5451 -0.6646,0 -1.4234,0.569 -1.5184,1.2569 -0.0239,0.1898 0.0233,0.4275 0.0472,0.5696 l 2.9896,8.5645 -0.7834,5.5038 c -0.0949,0.6879 0.4275,1.2808 1.1625,1.2808 z m 10.6047,-0.0472 c 3.1317,0 5.0531,-1.8981 5.3857,-4.3181 l 0.5457,-3.7478 c 0.3559,-2.4439 -1.0676,-4.3181 -4.1993,-4.3181 -3.1316,0 -5.053,1.8742 -5.4089,4.3181 l -0.5218,3.7478 c -0.3326,2.42 1.0675,4.3181 4.1986,4.3181 z m 0.3087,-2.254 c -1.4712,0 -2.1113,-0.7827 -1.9453,-2.0641 l 0.5458,-3.7717 c 0.166,-1.2575 1.0437,-2.0402 2.5143,-2.0402 1.4712,0 2.1118,0.7827 1.9452,2.0402 l -0.5451,3.7717 c -0.1899,1.2814 -1.0443,2.0641 -2.5149,2.0641 z m 14.7323,1.3053 c 0.2371,0.474 0.5929,0.806 1.1148,0.806 0.6167,0 1.2813,-0.4502 1.3762,-1.1386 0.0239,-0.2848 -0.071,-0.4741 -0.1898,-0.6407 -0.1899,-0.332 -0.3559,-0.4269 -0.2371,-1.2568 l 1.1148,-7.9478 c 0.0949,-0.6639 -0.261,-1.1625 -1.1148,-1.1625 -0.8544,0 -1.3524,0.4986 -1.4473,1.1625 l -1.0915,7.7101 c -0.0232,0.166 -0.0232,0.3559 -0.0232,0.5696 -0.8067,0.4031 -1.6133,0.6407 -2.3251,0.6407 -1.2335,0 -1.7321,-0.8544 -1.5183,-2.3728 l 0.9248,-6.5476 c 0.095,-0.6639 -0.3081,-1.1625 -1.1147,-1.1625 -0.8305,0 -1.3524,0.4986 -1.4473,1.1625 l -0.9249,6.5476 c -0.3797,2.7287 0.7589,4.579 3.4398,4.579 1.0914,0 2.3011,-0.2609 3.4636,-0.9487 z m 11.6245,-8.9443 c 0.6885,0.0478 1.3524,-0.4508 1.4713,-1.2097 0.0949,-0.6645 -0.2138,-1.1625 -1.4235,-1.1625 -0.8305,0 -2.1112,0.3798 -3.2505,1.0198 -0.237,-0.403 -0.569,-0.6878 -0.9959,-0.6878 -0.6646,0 -1.3052,0.4508 -1.4002,1.1153 -0.0471,0.2842 0.0239,0.4508 0.1427,0.6401 0.1899,0.3559 0.2371,0.7117 0.1421,1.3763 l -1.0675,7.5912 c -0.095,0.6885 0.3797,1.2103 1.1153,1.2103 0.7117,0 1.3518,-0.5218 1.4467,-1.2103 l 1.0676,-7.5912 c 0.0239,-0.166 0.0239,-0.332 0.0239,-0.5458 1.0915,-0.5929 1.7321,-0.5696 2.728,-0.5457 z m 12.4318,-1.1147 c 0.332,-2.3489 1.3285,-3.8195 3.7485,-3.8195 0.8299,0 1.4945,0.237 2.0635,0.6639 l 0.0949,0.0711 c 0.3087,0.2376 0.4508,0.3797 0.9016,0.3797 0.7356,0 1.3763,-0.5929 1.3763,-1.2575 0,-1.1857 -2.017,-2.1584 -4.2464,-2.1584 -3.9145,0 -6.0264,2.4194 -6.5482,6.1207 l -0.6878,4.8871 c -0.5219,3.7006 0.9254,6.1206 4.8399,6.1206 2.2772,0 5.148,-0.8777 5.4322,-2.9418 l 0.7595,-5.4567 c 0.1421,-0.9249 -0.5696,-1.3757 -1.4473,-1.3757 h -2.7042 c -0.6884,0 -1.3763,0.5929 -1.3763,1.3285 0,0.5929 0.4747,1.0676 1.0204,1.0676 h 1.7793 l -0.6174,4.3891 c -0.6878,0.4269 -1.4467,0.6879 -2.4193,0.6879 -2.42,0 -2.9896,-1.4712 -2.657,-3.8195 z m 12.8581,11.0077 c 1.2575,0 2.1119,-0.4036 3.1078,-1.1625 0.3797,0.8066 0.9965,1.0676 1.7793,1.0676 0.9726,0 1.5184,-0.3798 1.5184,-1.1864 0,-0.3559 -0.1421,-0.6168 -0.5929,-0.664 -0.2848,-0.0239 -0.5929,-0.071 -0.498,-0.7595 l 0.6878,-4.8154 c 0.427,-3.0845 -0.6406,-4.8399 -3.7245,-4.8399 -3.3926,0 -4.911,2.1112 -5.314,4.9342 l -0.4037,2.8469 c -0.3797,2.7287 0.7589,4.579 3.4398,4.579 z m 0.8067,-2.2062 c -1.3996,0 -1.8975,-0.7828 -1.6844,-2.3728 l 0.4036,-2.8469 c 0.261,-1.8736 0.9016,-2.6802 2.4194,-2.6802 1.4001,0 1.756,0.6639 1.5661,2.0163 l -0.7117,5.1008 c -0.8305,0.5929 -1.3046,0.7828 -1.993,0.7828 z m 7.9716,-2.8469 c -0.4508,3.2499 0.1898,4.9582 3.6768,4.9582 0.9254,0 1.8509,-0.1421 1.993,-1.2336 0.1188,-0.8066 -0.403,-1.0676 -1.4234,-1.0676 -0.095,0 -0.2848,0.0239 -0.4508,0.0239 -1.4234,0 -1.4945,-0.7595 -1.2097,-2.8469 l 0.5929,-4.152 h 2.1113 c 0.6645,0 1.2813,-0.498 1.3762,-1.1387 0.095,-0.6639 -0.4036,-1.1625 -1.0675,-1.1625 h -2.088 l 0.4036,-2.9418 c 0.0949,-0.6401 -0.3087,-1.1858 -1.1153,-1.1858 -0.83,0 -1.3518,0.5219 -1.4467,1.1858 z m 12.1463,0.1899 c 3.0129,0 4.5074,-1.3285 4.8161,-3.5586 0.3558,-2.3728 -0.8539,-3.9383 -3.7246,-3.9383 -3.0606,0 -4.9581,1.7793 -5.2907,4.1043 l -0.569,4.1993 c -0.332,2.3011 1.0914,4.0565 4.0093,4.0565 1.3996,0 4.2465,-0.4036 4.4363,-1.8271 0.0711,-0.474 -0.1898,-1.0675 -0.9965,-1.0675 -0.2848,0 -0.4747,0.0716 -0.5457,0.1188 -0.8306,0.3558 -1.4945,0.5929 -2.3722,0.5929 -1.4945,0 -2.1352,-0.6879 -1.9931,-1.7554 l 0.1427,-1.0915 c 0.7589,0.1188 1.4235,0.1666 2.0874,0.1666 z m 2.3012,-3.6302 c -0.1421,0.9965 -0.6879,1.6372 -2.0403,1.6372 -0.3558,0 -1.2807,-0.0472 -2.0641,-0.1421 l 0.1899,-1.4002 c 0.166,-1.1386 1.0204,-1.8504 2.3489,-1.8504 1.1625,0 1.7316,0.4986 1.5656,1.7555 z m 19.4062,-2.4194 c 0.0233,-0.0478 0.0711,-0.166 0.0711,-0.3326 0,-0.5929 -0.4986,-1.0437 -1.1154,-1.0437 -0.5218,0 -1.1386,0.3798 -1.3285,0.8545 l -1.7554,4.4595 c -0.4747,1.2103 -0.8305,2.4439 -1.2336,3.6774 -0.1188,-1.4234 -0.1659,-2.8468 -0.3087,-4.2464 l -0.403,-3.7246 c -0.071,-0.5935 -0.4747,-1.0204 -1.2096,-1.0204 -0.7595,0 -1.3292,0.4269 -1.5662,1.0204 l -1.4473,3.7246 c -0.5451,1.3996 -0.9488,2.823 -1.4706,4.2464 -0.0711,-1.2335 -0.0472,-2.4671 -0.1899,-3.6774 l -0.5457,-4.4595 c -0.0711,-0.5458 -0.5458,-0.8545 -1.0676,-0.8545 -0.7828,0 -1.4467,0.6168 -1.4467,1.2575 0,0.0471 0,0.0949 0,0.1188 l 1.3995,9.6554 c 0.1183,0.7827 0.5219,1.2335 1.3757,1.2335 0.7834,0 1.2813,-0.2609 1.5662,-0.9726 1.0198,-2.491 1.9213,-4.982 2.8468,-7.5202 l 0.7117,7.5202 c 0.0711,0.6406 0.6879,0.9726 1.3285,0.9726 0.9016,0 1.3285,-0.403 1.6844,-1.2097 z m 4.1276,10.9128 c 1.2575,0 2.1119,-0.4036 3.1078,-1.1625 0.3797,0.8066 0.9965,1.0676 1.7793,1.0676 0.9726,0 1.5184,-0.3798 1.5184,-1.1864 0,-0.3559 -0.1421,-0.6168 -0.5929,-0.664 -0.2848,-0.0239 -0.5929,-0.071 -0.498,-0.7595 l 0.6878,-4.8154 c 0.427,-3.0845 -0.6406,-4.8399 -3.7245,-4.8399 -3.3926,0 -4.911,2.1112 -5.314,4.9342 l -0.4037,2.8469 c -0.3797,2.7287 0.7589,4.579 3.4398,4.579 z m 0.8067,-2.2062 c -1.3996,0 -1.8975,-0.7828 -1.6844,-2.3728 l 0.4036,-2.8469 c 0.261,-1.8736 0.9016,-2.6802 2.4194,-2.6802 1.4002,0 1.756,0.6639 1.5661,2.0163 l -0.7117,5.1008 c -0.8305,0.5929 -1.3046,0.7828 -1.993,0.7828 z m 18.2198,-8.9204 c 0.0949,-0.6639 -0.2842,-1.1625 -1.1386,-1.1625 -0.8538,0 -1.3518,0.4986 -1.4234,1.1625 l -1.1387,8.0899 c -0.7356,0.5929 -1.5894,0.8538 -2.4199,0.8538 -1.4235,0 -1.8504,-0.8538 -1.6605,-2.2534 l 0.9255,-6.6903 c 0.0949,-0.6639 -0.3087,-1.1625 -1.1154,-1.1625 -0.8299,0 -1.3524,0.4986 -1.4473,1.1625 l -0.9249,6.6903 c -0.3558,2.5143 0.3798,4.4124 3.5347,4.4124 1.0437,0 1.9214,-0.237 2.7759,-0.6407 l -0.1899,1.3524 c -0.1899,1.4235 -0.9727,2.254 -2.5621,2.254 -0.7595,0 -1.1625,-0.2609 -1.6843,-0.4747 -0.2138,-0.0949 -0.3798,-0.0949 -0.5219,-0.0949 -0.7117,0 -1.3285,0.5457 -1.3285,1.1864 0,1.2097 2.2301,1.5655 3.4159,1.5655 3.2027,0 4.8632,-1.9453 5.2191,-4.4363 z m 9.4189,6.0735 c -0.4508,3.2499 0.1899,4.9582 3.6768,4.9582 0.9255,0 1.851,-0.1421 1.9931,-1.2336 0.1188,-0.8066 -0.403,-1.0676 -1.4234,-1.0676 -0.095,0 -0.2849,0.0239 -0.4508,0.0239 -1.4235,0 -1.4945,-0.7595 -1.2097,-2.8469 l 0.5929,-4.152 h 2.1112 c 0.6646,0 1.2814,-0.498 1.3763,-1.1387 0.095,-0.6639 -0.4036,-1.1625 -1.0676,-1.1625 h -2.0879 l 0.4036,-2.9418 c 0.0949,-0.6401 -0.3087,-1.1858 -1.1154,-1.1858 -0.8299,0 -1.3517,0.5219 -1.4467,1.1858 z m 11.6007,5.0531 c 3.1317,0 5.053,-1.8981 5.3856,-4.3181 l 0.5458,-3.7478 c 0.3558,-2.4439 -1.0676,-4.3181 -4.1993,-4.3181 -3.1317,0 -5.0531,1.8742 -5.4089,4.3181 l -0.5219,3.7478 c -0.3326,2.42 1.0676,4.3181 4.1987,4.3181 z m 0.3087,-2.254 c -1.4712,0 -2.1113,-0.7827 -1.9453,-2.0641 l 0.5457,-3.7717 c 0.166,-1.2575 1.0437,-2.0402 2.5143,-2.0402 1.4712,0 2.1119,0.7827 1.9453,2.0402 l -0.5451,3.7717 c -0.1899,1.2814 -1.0443,2.0641 -2.5149,2.0641 z m 17.769,-8.7537 c 0.332,-2.3489 1.3285,-3.8195 3.7485,-3.8195 0.8299,0 1.4945,0.237 2.0635,0.6639 l 0.0949,0.0711 c 0.3087,0.2376 0.4508,0.3797 0.9016,0.3797 0.7356,0 1.3763,-0.5929 1.3763,-1.2575 0,-1.1857 -2.017,-2.1584 -4.2464,-2.1584 -3.9145,0 -6.0264,2.4194 -6.5482,6.1207 l -0.6878,4.8871 c -0.5219,3.7006 0.9254,6.1206 4.8399,6.1206 2.2772,0 5.148,-0.8777 5.4322,-2.9418 l 0.7595,-5.4567 c 0.1421,-0.9249 -0.5696,-1.3757 -1.4473,-1.3757 h -2.7042 c -0.6884,0 -1.3763,0.5929 -1.3763,1.3285 0,0.5929 0.4747,1.0676 1.0204,1.0676 h 1.7793 l -0.6174,4.3891 c -0.6878,0.4269 -1.4467,0.6879 -2.4193,0.6879 -2.42,0 -2.9896,-1.4712 -2.657,-3.8195 z m 11.2215,11.0077 c 0.8777,0 1.4945,-0.4747 1.4945,-1.1864 0,-0.237 -0.1188,-0.3797 -0.237,-0.5218 -0.261,-0.332 -0.2377,-0.5458 -0.1899,-1.0437 l 1.8975,-13.4038 c 0.0949,-0.6646 -0.403,-1.1864 -1.1147,-1.1864 -0.7356,0 -1.3524,0.5457 -1.4474,1.1864 l -1.8975,13.5459 c -0.3326,2.3011 0.735,2.6098 1.4945,2.6098 z m 8.2319,0 c 3.1317,0 5.0531,-1.8981 5.3857,-4.3181 l 0.5457,-3.7478 c 0.3559,-2.4439 -1.0676,-4.3181 -4.1992,-4.3181 -3.1317,0 -5.0531,1.8742 -5.409,4.3181 l -0.5218,3.7478 c -0.3326,2.42 1.0676,4.3181 4.1986,4.3181 z m 0.3087,-2.254 c -1.4712,0 -2.1112,-0.7827 -1.9452,-2.0641 l 0.5457,-3.7717 c 0.166,-1.2575 1.0437,-2.0402 2.5143,-2.0402 1.4712,0 2.1118,0.7827 1.9452,2.0402 l -0.5451,3.7717 c -0.1898,1.2814 -1.0443,2.0641 -2.5149,2.0641 z m 11.0788,-7.1404 c 0.6407,-0.5935 1.4473,-0.9255 2.42,-0.9255 1.3756,0 1.8742,0.6407 1.7315,1.7082 l -0.6168,4.4124 c -0.1899,1.2814 -0.9726,2.0642 -2.4193,2.0642 -1.3291,0 -2.0641,-0.6646 -1.8982,-1.7322 z m -3.3448,5.5271 c -0.3087,2.1591 1.1625,3.8673 4.1515,3.8673 3.1316,0 4.9581,-1.8981 5.2901,-4.3181 l 0.5935,-4.2225 c 0.3081,-2.159 -0.5696,-3.8195 -3.4165,-3.8195 -1.2097,0 -2.1113,0.2848 -2.9651,0.8066 l 0.6401,-4.6261 c 0.0949,-0.6168 -0.3081,-1.1625 -1.1148,-1.1625 -0.8305,0 -1.3762,0.5457 -1.4473,1.1625 z m 15.0643,3.8673 c 1.2574,0 2.1118,-0.4036 3.1078,-1.1625 0.3797,0.8066 0.9965,1.0676 1.7793,1.0676 0.9726,0 1.5183,-0.3798 1.5183,-1.1864 0,-0.3559 -0.1421,-0.6168 -0.5929,-0.664 -0.2848,-0.0239 -0.5929,-0.071 -0.4979,-0.7595 l 0.6878,-4.8154 c 0.4269,-3.0845 -0.6407,-4.8399 -3.7246,-4.8399 -3.3926,0 -4.9109,2.1112 -5.314,4.9342 l -0.4036,2.8469 c -0.3797,2.7287 0.7589,4.579 3.4398,4.579 z m 0.8066,-2.2062 c -1.3995,0 -1.8975,-0.7828 -1.6843,-2.3728 l 0.4036,-2.8469 c 0.2609,-1.8736 0.9016,-2.6802 2.4193,-2.6802 1.4002,0 1.7561,0.6639 1.5662,2.0163 l -0.7117,5.1008 c -0.8306,0.5929 -1.3046,0.7828 -1.9931,0.7828 z m 9.4661,2.2062 c 0.8777,0 1.4945,-0.4747 1.4945,-1.1864 0,-0.237 -0.1188,-0.3797 -0.237,-0.5218 -0.261,-0.332 -0.2377,-0.5458 -0.1899,-1.0437 l 1.8975,-13.4038 c 0.0949,-0.6646 -0.403,-1.1864 -1.1147,-1.1864 -0.7356,0 -1.3524,0.5457 -1.4474,1.1864 l -1.8975,13.5459 c -0.3326,2.3011 0.735,2.6098 1.4945,2.6098 z m 14.3054,-1.1864 c -0.0949,0.6407 0.4036,1.2336 1.1386,1.2336 0.7118,0 1.3763,-0.5929 1.4713,-1.2336 l 1.8742,-13.285 h 2.8701 c 0.7117,0 1.4002,-0.5696 1.4945,-1.2103 0.0949,-0.6878 -0.4979,-1.2335 -1.1619,-1.2335 h -8.3507 c -0.7356,0 -1.4002,0.6878 -1.4712,1.2335 -0.095,0.6407 0.3797,1.2103 1.1386,1.2103 h 2.8707 z m 15.373,-8.7066 c 0.6884,0.0478 1.3524,-0.4508 1.4712,-1.2097 0.0949,-0.6645 -0.2138,-1.1625 -1.4234,-1.1625 -0.8306,0 -2.1113,0.3798 -3.2505,1.0198 -0.2371,-0.403 -0.569,-0.6878 -0.9959,-0.6878 -0.6646,0 -1.3053,0.4508 -1.4002,1.1153 -0.0472,0.2842 0.0239,0.4508 0.1427,0.6401 0.1899,0.3559 0.237,0.7117 0.1421,1.3763 l -1.0676,7.5912 c -0.0949,0.6885 0.3798,1.2103 1.1154,1.2103 0.7117,0 1.3517,-0.5218 1.4467,-1.2103 l 1.0676,-7.5912 c 0.0238,-0.166 0.0238,-0.332 0.0238,-0.5458 1.0915,-0.5929 1.7322,-0.5696 2.7281,-0.5457 z m 5.314,9.893 c 1.2574,0 2.1119,-0.4036 3.1078,-1.1625 0.3797,0.8066 0.9965,1.0676 1.7793,1.0676 0.9726,0 1.5183,-0.3798 1.5183,-1.1864 0,-0.3559 -0.1421,-0.6168 -0.5928,-0.664 -0.2849,-0.0239 -0.5929,-0.071 -0.498,-0.7595 l 0.6878,-4.8154 c 0.4269,-3.0845 -0.6406,-4.8399 -3.7245,-4.8399 -3.3926,0 -4.911,2.1112 -5.314,4.9342 l -0.4037,2.8469 c -0.3797,2.7287 0.7589,4.579 3.4398,4.579 z m 0.8066,-2.2062 c -1.3995,0 -1.8975,-0.7828 -1.6843,-2.3728 l 0.4036,-2.8469 c 0.2609,-1.8736 0.9016,-2.6802 2.4194,-2.6802 1.4001,0 1.756,0.6639 1.5661,2.0163 l -0.7117,5.1008 c -0.8305,0.5929 -1.3046,0.7828 -1.9931,0.7828 z m 12.9769,-10.059 c -3.2027,0 -4.5073,2.0163 -4.9103,4.8393 l -0.4036,2.8469 c -0.3798,2.7287 0.7827,4.579 3.4164,4.579 1.1858,0 2.3012,-0.4036 3.487,-0.9965 0.2609,0.4979 0.6645,0.8305 1.2335,0.8305 0.6174,0 1.3524,-0.4508 1.3524,-1.2813 0,-0.1899 -0.0471,-0.3559 -0.166,-0.498 -0.3081,-0.3558 -0.4508,-0.6168 -0.3797,-1.1153 l 1.8509,-13.119 c 0.0944,-0.6407 -0.3087,-1.1625 -1.1153,-1.1625 -0.8306,0 -1.3524,0.5218 -1.4473,1.1625 l -0.6168,4.3652 c -0.8067,-0.332 -1.5417,-0.4508 -2.3012,-0.4508 z m 1.1154,8.9675 c -0.0239,0.1421 -0.0478,0.3087 -0.0239,0.498 -0.8538,0.3797 -1.6372,0.5935 -2.254,0.5935 -1.3046,0 -1.8025,-0.8305 -1.5894,-2.3728 l 0.4036,-2.8469 c 0.261,-1.8264 0.9016,-2.6802 2.3483,-2.6802 0.4747,0 1.2814,0.1182 2.017,0.403 z m 10.2011,-1.5655 c 3.0128,0 4.5073,-1.3285 4.816,-3.5586 0.3559,-2.3728 -0.8538,-3.9383 -3.7246,-3.9383 -3.0606,0 -4.9581,1.7793 -5.2907,4.1043 l -0.569,4.1993 c -0.332,2.3011 1.0915,4.0565 4.0094,4.0565 1.3995,0 4.2464,-0.4036 4.4363,-1.8271 0.071,-0.474 -0.1899,-1.0675 -0.9965,-1.0675 -0.2848,0 -0.4747,0.0716 -0.5458,0.1188 -0.8305,0.3558 -1.4945,0.5929 -2.3722,0.5929 -1.4944,0 -2.1351,-0.6879 -1.993,-1.7554 l 0.1427,-1.0915 c 0.7589,0.1188 1.4234,0.1666 2.0874,0.1666 z m 2.3011,-3.6302 c -0.1421,0.9965 -0.6878,1.6372 -2.0402,1.6372 -0.3559,0 -1.2807,-0.0472 -2.0641,-0.1421 l 0.1899,-1.4002 c 0.166,-1.1386 1.0204,-1.8504 2.3489,-1.8504 1.1625,0 1.7315,0.4986 1.5655,1.7555 z"
       style="fill:#3a3a3a;fill-rule:evenodd"
       id="path2" />
    <g
       id="Layer1001">
      <path
         d="m 477.951,306.3525 c -0.9338,0.2269 -2.4151,0.0704 -2.9477,0 -0.073,-0.01 -0.1289,-0.0178 -0.1623,-0.023 -0.316,-0.0493 -0.6342,-0.098 -0.954,-0.1464 -0.379,-0.0571 -0.7606,-0.1136 -1.1448,-0.1695 -0.3938,-0.0572 -0.79,-0.1136 -1.1889,-0.1694 -0.4098,-0.0573 -0.822,-0.1137 -1.2373,-0.1693 -0.4273,-0.0574 -0.8576,-0.1138 -1.2903,-0.1694 -0.4463,-0.0573 -0.8956,-0.1138 -1.3478,-0.1694 -0.4676,-0.0575 -0.9384,-0.114 -1.4121,-0.1695 -0.49,-0.0575 -0.983,-0.114 -1.4792,-0.1694 -0.5158,-0.0576 -1.035,-0.114 -1.5574,-0.1694 -0.5453,-0.0577 -1.0938,-0.1142 -1.6459,-0.1695 -0.5778,-0.0578 -1.159,-0.1143 -1.7438,-0.1694 -0.6151,-0.0581 -1.2341,-0.1145 -1.8567,-0.1694 -0.6604,-0.0582 -1.3247,-0.1146 -1.9931,-0.1694 -0.7131,-0.0584 -1.4308,-0.1149 -2.1526,-0.1694 -0.7789,-0.0588 -1.5626,-0.1152 -2.351,-0.1693 -0.8648,-0.0593 -1.735,-0.1158 -2.6102,-0.1696 -0.9782,-0.06 -1.9629,-0.1165 -2.9533,-0.1693 -1.1486,-0.0613 -2.3048,-0.1179 -3.468,-0.1694 -1.4455,-0.0641 -2.9015,-0.1207 -4.3664,-0.1695 l -0.1705,-0.006 c -0.2923,-0.01 -1.0172,-0.0389 -1.7241,-0.1636 -0.2476,-0.0437 -0.4927,-0.0991 -0.7164,-0.1694 -0.1553,-0.0489 -0.3005,-0.1051 -0.4286,-0.1694 -0.1016,-0.051 -0.1926,-0.1075 -0.2698,-0.1695 -0.0651,-0.0523 -0.1206,-0.1085 -0.1642,-0.1694 -0.0378,-0.0531 -0.0669,-0.1094 -0.0856,-0.1694 -0.0168,-0.0535 -0.0247,-0.11 -0.0242,-0.1694 2e-4,-0.0235 0.001,-0.0473 0.004,-0.0719 0.004,-0.0335 0.0112,-0.0659 0.0207,-0.0976 0.018,-0.0597 0.0449,-0.1162 0.0796,-0.1694 0.0393,-0.0605 0.0889,-0.1169 0.1471,-0.1694 0.0686,-0.0615 0.1488,-0.1179 0.2391,-0.1695 0.1109,-0.0634 0.2364,-0.1197 0.3722,-0.1694 0.1855,-0.0678 0.3899,-0.1237 0.6023,-0.1693 0.4211,-0.0906 0.8729,-0.1418 1.2676,-0.1694 0.4585,-0.0321 0.8399,-0.0325 1.0064,-0.0264 l 0.7019,0.0264 c 1.307,0.0502 2.6069,0.1069 3.8987,0.1694 1.0814,0.0523 2.1571,0.1088 3.2262,0.1693 0.9428,0.0534 1.8804,0.1099 2.8125,0.1694 0.8464,0.054 1.6883,0.1106 2.5251,0.1695 0.773,0.0545 1.542,0.111 2.3064,0.1694 0.7158,0.0548 1.4273,0.1112 2.1349,0.1694 0.6698,0.055 1.336,0.1114 1.9982,0.1695 0.6297,0.0552 1.2555,0.1117 1.8778,0.1694 0.5963,0.0553 1.1892,0.1118 1.7785,0.1694 0.5672,0.0555 1.1312,0.1118 1.6916,0.1694 0.5414,0.0555 1.0798,0.1121 1.6146,0.1695 0.5177,0.0555 1.0321,0.1122 1.5435,0.1694 0.4972,0.0556 0.9912,0.1122 1.482,0.1694 0.4783,0.0557 0.9537,0.1122 1.426,0.1694 0.461,0.0557 0.9189,0.1123 1.3739,0.1695 0.4448,0.0559 0.8866,0.1123 1.3254,0.1694 0.4297,0.0559 0.8563,0.1123 1.2805,0.1693 0.4162,0.0561 0.8298,0.1126 1.2406,0.1696 0.3315,0.046 0.6611,0.0925 0.9888,0.1391 l 0.2041,0.0302 c 0.315,0.0483 0.6259,0.1037 0.9217,0.1694 0.2254,0.0502 0.442,0.1061 0.6455,0.1694 0.1654,0.0514 0.3217,0.1077 0.467,0.1694 0.1232,0.0523 0.2384,0.1086 0.3437,0.1694 0.0921,0.053 0.1765,0.1095 0.2528,0.1695 0.0679,0.0535 0.1289,0.1099 0.1828,0.1694 0.0488,0.0538 0.0916,0.1103 0.1277,0.1694 0.033,0.0542 0.0605,0.1106 0.0821,0.1695 0.0198,0.0544 0.0345,0.1109 0.0438,0.1694 0.005,0.0312 0.008,0.0629 0.0102,0.0954 v 0.074 0.0181 c -0.003,0.0539 -0.014,0.1042 -0.0312,0.1512 -0.0228,0.0621 -0.0572,0.1184 -0.1018,0.1694 -0.0564,0.0646 -0.1286,0.1208 -0.2142,0.1695 -0.1261,0.0717 -0.2808,0.1272 -0.4545,0.1694 z"
         style="fill:#0083c3;fill-rule:evenodd"
         id="path3" />
      <path
         d="m 426.5376,317.1983 c -1.7893,0.0411 -3.6341,0.0629 -5.5197,0.0629 -1.8856,0 -3.7302,-0.0218 -5.5195,-0.0629 -2.2196,-0.051 -4.3538,-0.1321 -6.3734,-0.24 -1.2989,-0.0693 -2.5507,-0.1495 -3.7471,-0.24 -0.9723,-0.0734 -1.9079,-0.1537 -2.8034,-0.24 -0.7829,-0.0753 -1.5355,-0.1554 -2.254,-0.2398 -0.6503,-0.0766 -1.2719,-0.1568 -1.8649,-0.2401 -0.5495,-0.0771 -1.0744,-0.1572 -1.5714,-0.24 -0.4669,-0.0777 -0.909,-0.1577 -1.3266,-0.24 -0.3965,-0.078 -0.7703,-0.158 -1.1203,-0.2398 -0.335,-0.0783 -0.6482,-0.1584 -0.9383,-0.2399 -0.2796,-0.0787 -0.5384,-0.1587 -0.7745,-0.24 -0.2287,-0.0788 -0.4383,-0.1589 -0.6244,-0.24 -0.1811,-0.079 -0.3396,-0.1591 -0.4789,-0.24 -0.1358,-0.0791 -0.2514,-0.1591 -0.346,-0.2399 -0.0928,-0.0792 -0.1663,-0.1593 -0.2181,-0.24 -0.0507,-0.0793 -0.08,-0.1594 -0.09,-0.24 -0.002,-0.0194 -0.006,-0.0387 -0.006,-0.058 0,-0.0623 0.0141,-0.1227 0.0388,-0.182 0.035,-0.0827 0.0927,-0.1626 0.174,-0.2399 0.0874,-0.0829 0.2005,-0.1627 0.3395,-0.24 0.1491,-0.0829 0.3265,-0.1628 0.5327,-0.2399 0.2212,-0.0828 0.4752,-0.1627 0.7591,-0.24 0.304,-0.0828 0.6433,-0.1625 1.0154,-0.24 0.3947,-0.0823 0.826,-0.162 1.293,-0.2399 0.4897,-0.0817 1.0174,-0.1614 1.5816,-0.24 0.581,-0.081 1.2001,-0.1606 1.8543,-0.24 0.6588,-0.08 1.3535,-0.1597 2.0808,-0.24 13.7227,-1.5163 25.3662,-1.6749 39.0997,-0.2399 0.7676,0.0801 1.5051,0.1598 2.2095,0.2399 0.6993,0.0794 1.3662,0.1591 1.9979,0.24 0.6159,0.0788 1.1985,0.1585 1.7449,0.24 0.5256,0.0783 1.0171,0.1581 1.4735,0.24 0.4343,0.0779 0.8371,0.1578 1.2048,0.2399 0.3475,0.0776 0.664,0.1575 0.9488,0.24 0.2683,0.0776 0.5077,0.1575 0.7176,0.24 0.197,0.0775 0.3675,0.1575 0.5105,0.2399 0.1345,0.0775 0.2436,0.1576 0.3285,0.24 0.0798,0.0775 0.1365,0.1575 0.1709,0.2399 0.0245,0.0593 0.0383,0.12 0.0383,0.182 0,0.0195 -0.004,0.0386 -0.006,0.058 -0.01,0.0806 -0.0394,0.1607 -0.0901,0.24 -0.0517,0.0807 -0.1253,0.1608 -0.218,0.24 -0.0946,0.0808 -0.2102,0.1608 -0.3461,0.2399 -0.1393,0.0809 -0.2978,0.161 -0.4788,0.24 -0.1862,0.0812 -0.3957,0.1612 -0.6245,0.24 -0.2362,0.0813 -0.4951,0.1613 -0.7749,0.24 -0.2902,0.0815 -0.6031,0.1616 -0.9382,0.2399 -0.3498,0.0817 -0.7234,0.1618 -1.12,0.2398 -0.4176,0.0823 -0.8597,0.1623 -1.3265,0.24 -0.497,0.0828 -1.022,0.1628 -1.5716,0.24 -0.5933,0.0835 -1.2151,0.1635 -1.8658,0.2401 -0.718,0.0844 -1.4703,0.1645 -2.253,0.2398 -0.8959,0.0864 -1.832,0.1665 -2.8049,0.24 -1.1965,0.0905 -2.4487,0.1707 -3.7475,0.24 -2.0191,0.1079 -4.1526,0.189 -6.3716,0.24 z"
         style="fill:#0083c3;fill-rule:evenodd"
         id="path4" />
      <path
         d="m 433.9264,331.9348 c -4.1793,0.1017 -8.4764,0.1533 -12.9085,0.1533 -5.8315,0 -11.5539,-0.0368 -17.1011,-0.1533 -2.098,-0.0441 -4.1707,-0.0997 -6.2148,-0.1691 -1.4487,-0.0492 -2.8828,-0.1053 -4.3013,-0.1693 -1.1366,-0.0513 -2.2635,-0.1076 -3.3795,-0.1692 -0.9478,-0.0525 -1.8877,-0.1088 -2.8197,-0.1693 -0.8173,-0.0531 -1.6283,-0.1094 -2.4328,-0.1691 -0.7225,-0.0536 -1.44,-0.1101 -2.1518,-0.1693 -0.6486,-0.054 -1.2926,-0.1104 -1.9321,-0.1693 -0.59,-0.0542 -1.1766,-0.1106 -1.7585,-0.1692 -0.5406,-0.0544 -1.078,-0.1108 -1.6113,-0.1691 -0.5001,-0.0548 -0.9967,-0.1111 -1.4902,-0.1693 -0.4647,-0.0549 -0.9262,-0.1113 -1.385,-0.1693 -0.4344,-0.0548 -0.866,-0.1113 -1.2951,-0.1691 -0.4093,-0.0551 -0.8166,-0.1114 -1.2208,-0.1692 -0.3851,-0.0552 -0.7675,-0.1116 -1.1479,-0.1693 -0.3645,-0.0553 -0.7269,-0.1117 -1.0871,-0.1693 -0.3453,-0.0551 -0.6885,-0.1116 -1.0299,-0.1691 -0.3293,-0.0555 -0.6575,-0.1117 -0.983,-0.1692 -0.2224,-0.0395 -0.444,-0.0791 -0.6645,-0.1194 -0.0899,-0.0165 -0.1767,-0.0331 -0.2638,-0.0499 -0.2871,-0.0551 -0.5602,-0.1116 -0.8165,-0.1693 -0.2458,-0.0554 -0.4768,-0.1118 -0.6952,-0.1691 -0.2121,-0.0556 -0.4114,-0.1121 -0.5983,-0.1693 -0.1824,-0.0557 -0.3535,-0.1123 -0.5125,-0.1692 -0.1562,-0.056 -0.302,-0.1125 -0.4363,-0.1691 -0.1332,-0.0562 -0.2561,-0.1128 -0.3684,-0.1693 -0.1116,-0.0563 -0.2139,-0.1128 -0.3055,-0.1693 -0.0916,-0.0564 -0.1735,-0.1129 -0.2457,-0.1692 -0.0728,-0.0566 -0.1353,-0.113 -0.1891,-0.1691 -0.0543,-0.0568 -0.0989,-0.1134 -0.1346,-0.1693 -0.0364,-0.0569 -0.0629,-0.1135 -0.0807,-0.1693 -0.0182,-0.0571 -0.0269,-0.1136 -0.0264,-0.1691 5e-4,-0.0574 0.01,-0.1139 0.0295,-0.1692 0.0204,-0.0579 0.0512,-0.1142 0.0914,-0.1693 0.0424,-0.0581 0.0953,-0.1146 0.1585,-0.1693 0.0678,-0.0587 0.1477,-0.1151 0.2381,-0.1691 0.0998,-0.0596 0.2127,-0.1162 0.338,-0.1693 0.1442,-0.0611 0.304,-0.1178 0.4792,-0.1692 0.2226,-0.0653 0.4692,-0.1221 0.7363,-0.1693 1.034,-0.1827 2.3791,-0.22 3.8586,-0.034 l 0.2723,0.034 c 0.4601,0.0573 0.9239,0.1138 1.3919,0.1693 0.4827,0.0573 0.9695,0.1139 1.4604,0.1692 0.5077,0.0574 1.0197,0.1138 1.5359,0.1693 0.5337,0.0573 1.0719,0.1137 1.6145,0.1691 0.5624,0.0575 1.1295,0.1139 1.7013,0.1693 0.5939,0.0576 1.1928,0.114 1.7966,0.1693 0.3496,0.0321 0.7006,0.0638 1.0533,0.0951 0.5013,0.0297 0.977,0.054 1.4331,0.0741 2.2353,0.0988 3.9409,0.0871 5.2083,0 0.5961,-0.0411 1.0947,-0.0988 1.5078,-0.1692 0.2948,-0.0503 0.5458,-0.1073 0.756,-0.1693 0.1793,-0.053 0.3302,-0.1095 0.4528,-0.1693 0.1113,-0.0541 0.2002,-0.1106 0.2683,-0.1691 0.064,-0.0549 0.1092,-0.1117 0.1379,-0.1693 0.0277,-0.0555 0.0394,-0.1122 0.0367,-0.1692 -0.003,-0.056 -0.0186,-0.1126 -0.048,-0.1693 -0.0292,-0.0564 -0.0706,-0.1129 -0.1241,-0.1691 -0.0544,-0.0571 -0.1215,-0.1135 -0.1984,-0.1693 -0.0794,-0.0574 -0.17,-0.1141 -0.2708,-0.1692 -0.1061,-0.0582 -0.2232,-0.1146 -0.35,-0.1691 -0.138,-0.0593 -0.2868,-0.116 -0.4453,-0.1693 -0.1815,-0.0612 -0.3756,-0.118 -0.5784,-0.1693 -0.2626,-0.0665 -0.5404,-0.1237 -0.8269,-0.1692 -0.1643,-0.0261 -0.3312,-0.0488 -0.5,-0.0667 h 0.004 c -0.2926,-0.0337 -0.5829,-0.0679 -0.8719,-0.1024 -0.4635,-0.0554 -0.9228,-0.1119 -1.3769,-0.1693 -0.4381,-0.0555 -0.8714,-0.112 -1.3009,-0.1693 -0.4159,-0.0555 -0.8277,-0.1119 -1.2352,-0.1691 -0.3968,-0.0556 -0.7905,-0.1121 -1.1791,-0.1694 -0.3767,-0.0556 -0.7488,-0.1121 -1.1176,-0.1691 -0.3606,-0.0558 -0.7181,-0.1121 -1.071,-0.1693 -0.3437,-0.0557 -0.6829,-0.1122 -1.019,-0.1691 -0.3297,-0.0559 -0.656,-0.1122 -0.9784,-0.1693 -0.3153,-0.0557 -0.626,-0.1123 -0.9341,-0.1692 -0.3025,-0.0559 -0.6026,-0.1123 -0.8981,-0.1693 -0.2895,-0.0559 -0.5746,-0.1122 -0.8572,-0.1691 -0.2781,-0.0559 -0.5531,-0.1123 -0.8245,-0.1693 -0.2672,-0.056 -0.5316,-0.1123 -0.792,-0.1692 -0.2558,-0.0559 -0.5074,-0.1123 -0.7566,-0.1691 -0.246,-0.0561 -0.4889,-0.1125 -0.7285,-0.1693 -0.2365,-0.056 -0.4711,-0.1123 -0.7014,-0.1693 -0.2265,-0.056 -0.4487,-0.1124 -0.6691,-0.1692 -0.2176,-0.0561 -0.4318,-0.1125 -0.6432,-0.1692 -0.2089,-0.056 -0.4154,-0.1124 -0.6185,-0.1692 -0.2009,-0.056 -0.3994,-0.1125 -0.5943,-0.1693 -0.192,-0.056 -0.3805,-0.1124 -0.5667,-0.1691 -0.1844,-0.056 -0.3654,-0.1127 -0.5441,-0.1694 -0.1765,-0.056 -0.3503,-0.1124 -0.5212,-0.1691 -0.1692,-0.0562 -0.3358,-0.1126 -0.4993,-0.1693 -0.1617,-0.0561 -0.3215,-0.1124 -0.4777,-0.1691 -0.1548,-0.0562 -0.3071,-0.1126 -0.4563,-0.1693 -0.1476,-0.0561 -0.2921,-0.1125 -0.4343,-0.1692 -0.141,-0.0562 -0.2788,-0.1126 -0.4142,-0.1693 -0.1343,-0.0561 -0.2656,-0.1126 -0.3944,-0.1692 -0.1278,-0.0562 -0.2526,-0.1125 -0.3749,-0.1692 -0.1215,-0.0561 -0.2401,-0.1125 -0.3561,-0.1692 -0.1151,-0.0562 -0.2275,-0.1126 -0.3371,-0.1692 -0.109,-0.0562 -0.2156,-0.1127 -0.3192,-0.1693 -0.1028,-0.0562 -0.2029,-0.1126 -0.3003,-0.1692 -0.0968,-0.0563 -0.1915,-0.1126 -0.283,-0.1692 -0.0907,-0.0562 -0.1792,-0.1126 -0.2648,-0.1692 -0.085,-0.0563 -0.1668,-0.1127 -0.2465,-0.1692 -0.0793,-0.0563 -0.1557,-0.1127 -0.2296,-0.1693 -0.0736,-0.0561 -0.1442,-0.1127 -0.2124,-0.1692 -0.0681,-0.0563 -0.1331,-0.1127 -0.1959,-0.1693 -0.0624,-0.0562 -0.1219,-0.1126 -0.179,-0.1691 -0.0567,-0.0563 -0.1111,-0.1127 -0.1626,-0.1693 -0.0513,-0.0563 -0.1,-0.1126 -0.1462,-0.1691 -0.046,-0.0563 -0.0893,-0.1127 -0.13,-0.1693 -0.0405,-0.0563 -0.0785,-0.1127 -0.1139,-0.1692 -0.0352,-0.0563 -0.0679,-0.1127 -0.098,-0.1693 -0.0298,-0.0563 -0.0572,-0.1127 -0.082,-0.1692 -0.0247,-0.0563 -0.0469,-0.1126 -0.0664,-0.1692 -0.0194,-0.0563 -0.0362,-0.1127 -0.0506,-0.1692 -0.0143,-0.0563 -0.0259,-0.1126 -0.0349,-0.1692 -0.009,-0.0563 -0.0156,-0.1128 -0.0195,-0.1693 -0.003,-0.0426 -0.006,-0.0853 -0.006,-0.128 0,-0.0138 0.002,-0.0274 0.003,-0.0412 0.002,-0.0564 0.005,-0.1128 0.0119,-0.1692 0.007,-0.0566 0.017,-0.113 0.0287,-0.1693 0.0118,-0.0564 0.0232,-0.1128 0.04,-0.1691 0.0172,-0.0566 0.0374,-0.113 0.0594,-0.1693 0.0224,-0.0565 0.0481,-0.1129 0.0753,-0.1692 0.0273,-0.0565 0.0545,-0.113 0.0871,-0.1693 0.0327,-0.0565 0.0692,-0.1128 0.1071,-0.1691 0.038,-0.0566 0.0799,-0.113 0.1231,-0.1693 0.0434,-0.0564 0.0868,-0.113 0.1353,-0.1691 0.0491,-0.0567 0.1011,-0.113 0.1552,-0.1693 0.0544,-0.0566 0.1127,-0.1129 0.1723,-0.1692 0.0597,-0.0566 0.1203,-0.1131 0.1854,-0.1693 0.0654,-0.0565 0.1331,-0.113 0.2038,-0.1692 0.0711,-0.0566 0.1467,-0.1129 0.2229,-0.1692 0.0768,-0.0565 0.1552,-0.1131 0.2371,-0.1692 0.0824,-0.0566 0.1652,-0.113 0.2529,-0.1692 0.0886,-0.0568 0.1827,-0.1131 0.2767,-0.1694 0.0944,-0.0565 0.1913,-0.1129 0.2909,-0.1691 0.1003,-0.0565 0.2007,-0.1131 0.3064,-0.1692 0.1066,-0.0567 0.2168,-0.113 0.3288,-0.1693 0.1128,-0.0567 0.2296,-0.113 0.3477,-0.1691 0.1191,-0.0567 0.2399,-0.1131 0.3644,-0.1693 0.1253,-0.0565 0.2502,-0.1131 0.381,-0.1692 0.1323,-0.0568 0.27,-0.113 0.4076,-0.1693 0.1386,-0.0567 0.2811,-0.113 0.4254,-0.1691 0.1455,-0.0567 0.293,-0.1131 0.4442,-0.1693 0.1525,-0.0565 0.3051,-0.1132 0.4631,-0.1692 0.1598,-0.0567 0.3247,-0.1131 0.4902,-0.1693 0.167,-0.0567 0.3382,-0.113 0.511,-0.1691 0.1745,-0.0567 0.352,-0.1131 0.5324,-0.1693 0.1822,-0.0567 0.366,-0.1132 0.5541,-0.1693 0.19,-0.0566 0.3815,-0.113 0.5776,-0.1691 0.1988,-0.0568 0.4029,-0.1131 0.6078,-0.1692 0.2073,-0.0568 0.4186,-0.1131 0.6319,-0.1693 0.2159,-0.0568 0.435,-0.1132 0.6571,-0.1693 0.2249,-0.0566 0.4523,-0.1132 0.6833,-0.1691 0.2346,-0.0568 0.4714,-0.1132 0.7121,-0.1692 0.2443,-0.0567 0.4902,-0.1134 0.7408,-0.1693 0.2547,-0.0569 0.5133,-0.1132 0.7746,-0.1691 0.2658,-0.057 0.5361,-0.1133 0.8085,-0.1693 0.277,-0.0569 0.5581,-0.1133 0.8419,-0.1692 0.2889,-0.057 0.5817,-0.1134 0.8777,-0.1693 0.3013,-0.0569 0.6063,-0.1134 0.9146,-0.1691 0.3148,-0.0571 0.6337,-0.1135 0.9558,-0.1693 0.3294,-0.0571 0.6622,-0.1135 0.9989,-0.1693 0.3442,-0.057 0.6924,-0.1134 1.0443,-0.1692 0.3603,-0.0571 0.7244,-0.1135 1.0926,-0.1691 0.3782,-0.0572 0.7603,-0.1136 1.1465,-0.1693 0.3974,-0.0573 0.7987,-0.1137 1.2044,-0.1693 0.4174,-0.0571 0.8382,-0.1137 1.2643,-0.1691 0.4418,-0.0574 0.8886,-0.1137 1.3394,-0.1692 0.4678,-0.0576 0.9418,-0.1139 1.4193,-0.1693 0.4963,-0.0577 0.998,-0.114 1.5045,-0.1693 0.5274,-0.0575 1.0588,-0.1142 1.5969,-0.1691 0.5684,-0.0581 1.1435,-0.1142 1.7234,-0.1692 0.612,-0.0581 1.2298,-0.1146 1.8541,-0.1693 0.666,-0.0583 1.3392,-0.1148 2.0187,-0.1691 0.7318,-0.0586 1.4694,-0.1154 2.2162,-0.1693 0.8233,-0.0594 1.656,-0.1156 2.4969,-0.1693 0.9423,-0.0601 1.8949,-0.1166 2.8583,-0.1692 1.1355,-0.0619 2.2862,-0.118 3.4487,-0.1691 1.4885,-0.0655 2.9981,-0.1221 4.5272,-0.1693 1.6692,-0.0516 3.3596,-0.0926 5.0715,-0.1214 0.2613,-0.004 0.5039,0.0404 0.7168,0.1214 0.1203,0.0457 0.2312,0.1029 0.3307,0.1693 0.0767,0.0513 0.1466,0.1081 0.2088,0.1691 0.0544,0.0533 0.1026,0.11 0.1445,0.1692 0.0386,0.0544 0.0714,0.1111 0.0985,0.1693 0.0256,0.0551 0.0462,0.1117 0.0607,0.1693 0.014,0.0556 0.0225,0.1122 0.0255,0.1691 0.003,0.056 5e-4,0.1126 -0.008,0.1693 -0.008,0.0565 -0.0229,0.113 -0.0434,0.1692 -0.0207,0.0569 -0.0477,0.1134 -0.0814,0.1691 -0.0237,0.0391 -0.0504,0.0777 -0.0807,0.1158 -0.005,0.007 -0.0112,0.0145 -0.0171,0.0216 l -0.0268,0.0319 c -0.0541,0.0618 -0.1161,0.1183 -0.1849,0.1693 -0.0892,0.0661 -0.1897,0.1228 -0.2981,0.1692 -0.2216,0.0952 -0.476,0.1479 -0.7356,0.1528 -0.276,0.005 -0.5503,0.0107 -0.8247,0.0163 -1.9525,0.0403 -3.8688,0.097 -5.7413,0.1693 -1.2758,0.0493 -2.5307,0.1059 -3.7639,0.1693 -1.009,0.0518 -2.003,0.1082 -2.9807,0.1691 -0.852,0.0531 -1.6917,0.1095 -2.5184,0.1692 -0.7466,0.0539 -1.4834,0.1102 -2.208,0.1693 -0.6642,0.0543 -1.3187,0.1107 -1.9633,0.1693 -0.6022,0.0546 -1.1958,0.1109 -1.7802,0.1691 -0.5502,0.0548 -1.0913,0.1114 -1.6252,0.1693 -0.5073,0.055 -1.0064,0.1115 -1.4985,0.1692 -0.471,0.0553 -0.9353,0.1117 -1.3918,0.1693 -0.4375,0.0552 -0.8681,0.1118 -1.2917,0.1691 -0.4087,0.0554 -0.8106,0.1118 -1.2062,0.1693 -0.3831,0.0555 -0.7605,0.1118 -1.1309,0.1692 -0.3588,0.0555 -0.7115,0.112 -1.0582,0.1691 -0.3374,0.0557 -0.6684,0.1122 -0.9939,0.1693 -0.3178,0.0558 -0.6318,0.1121 -0.9381,0.1693 -0.2983,0.0556 -0.5888,0.1123 -0.8759,0.1692 -0.281,0.0558 -0.5566,0.1122 -0.8265,0.1691 -0.265,0.056 -0.5261,0.1124 -0.7803,0.1693 -0.2491,0.0559 -0.4925,0.1123 -0.7311,0.1693 -0.2341,0.0559 -0.4618,0.1123 -0.6856,0.1691 -0.2202,0.0559 -0.4353,0.1123 -0.6453,0.1693 -0.2069,0.056 -0.4094,0.1123 -0.6065,0.1692 -0.194,0.056 -0.3845,0.1125 -0.5685,0.1693 -0.1812,0.056 -0.3569,0.1123 -0.5283,0.1691 -0.1691,0.056 -0.3326,0.1125 -0.4921,0.1693 -0.1577,0.056 -0.3099,0.1124 -0.4578,0.1692 -0.1464,0.0561 -0.2878,0.1125 -0.4246,0.1693 -0.1352,0.056 -0.2657,0.1124 -0.3915,0.1691 -0.1246,0.0562 -0.2447,0.1125 -0.36,0.1693 -0.1141,0.0561 -0.2239,0.1125 -0.3287,0.1692 -0.1037,0.0562 -0.203,0.1125 -0.2976,0.1691 -0.0938,0.0562 -0.1834,0.1128 -0.2679,0.1694 -0.0838,0.0562 -0.1634,0.1126 -0.2381,0.1692 -0.0741,0.0561 -0.144,0.1127 -0.2091,0.1692 -0.0644,0.0562 -0.1248,0.1126 -0.1802,0.1692 -0.055,0.0561 -0.1057,0.1125 -0.1518,0.1692 -0.0457,0.0563 -0.0871,0.1126 -0.1238,0.1693 -0.0363,0.0563 -0.0684,0.1127 -0.0959,0.1692 -0.0272,0.0563 -0.0501,0.1127 -0.0684,0.1693 -0.0182,0.0561 -0.0317,0.1126 -0.0409,0.1691 -0.009,0.0563 -0.0138,0.1126 -0.014,0.1693 l -3e-4,0.004 c 0,0.0552 0.006,0.1103 0.0143,0.1652 0.009,0.0567 0.023,0.113 0.0409,0.1693 0.0178,0.0565 0.0407,0.1131 0.0676,0.1692 0.027,0.0567 0.059,0.1131 0.0951,0.1693 0.0362,0.0565 0.077,0.1129 0.1222,0.1691 0.0456,0.0567 0.0958,0.1131 0.1504,0.1693 0.055,0.0566 0.1146,0.1131 0.1785,0.1692 0.0646,0.0567 0.1338,0.113 0.2072,0.1692 0.0742,0.0566 0.153,0.113 0.2364,0.1693 0.0841,0.0567 0.1724,0.113 0.2655,0.1692 0.094,0.0566 0.1927,0.1131 0.2959,0.1692 0.1043,0.0567 0.2131,0.1131 0.3265,0.1692 0.1146,0.0566 0.2341,0.1131 0.3581,0.1692 0.1253,0.0567 0.2552,0.1132 0.39,0.1693 0.1363,0.0568 0.2777,0.1132 0.4233,0.1692 0.1475,0.0568 0.2998,0.1133 0.4568,0.1693 0.159,0.0568 0.3228,0.1131 0.4913,0.1691 0.1711,0.0568 0.3471,0.1132 0.5278,0.1693 0.1832,0.0568 0.371,0.1132 0.564,0.1691 0.1961,0.0568 0.397,0.1132 0.603,0.1693 0.2094,0.0568 0.4231,0.1133 0.6425,0.1692 0.2231,0.0568 0.4501,0.1134 0.6835,0.1693 0.2379,0.0569 0.4819,0.1133 0.7301,0.1692 0.2533,0.0571 0.5132,0.1133 0.7773,0.1692 0.2695,0.057 0.5449,0.1134 0.8252,0.1692 0.2863,0.0571 0.5776,0.1134 0.8751,0.1692 0.3048,0.057 0.6134,0.1136 0.9296,0.1693 0.3247,0.0572 0.6569,0.1135 0.9932,0.1692 0.346,0.0573 0.6989,0.1136 1.0571,0.1692 0.3682,0.0572 0.7408,0.1138 1.1215,0.1692 0.3951,0.0574 0.7983,0.1137 1.2064,0.1692 0.4223,0.0575 0.8505,0.114 1.2865,0.1693 0.4546,0.0577 0.9174,0.114 1.3866,0.1692 0.4897,0.0577 0.9857,0.1143 1.4905,0.1693 0.5326,0.058 1.075,0.1142 1.6237,0.1691 0.5821,0.0582 1.1731,0.1145 1.7728,0.1693 0.6415,0.0585 1.2925,0.1149 1.9532,0.1691 0.7193,0.059 1.4499,0.1155 2.1908,0.1694 0.8202,0.0596 1.6532,0.116 2.4984,0.1691 0.9685,0.0609 1.9527,0.1173 2.952,0.1693 1.2168,0.0632 2.4559,0.1197 3.7145,0.1692 1.8054,0.071 3.6507,0.1279 5.5313,0.1692 2.4301,0.0532 4.9185,0.081 7.4513,0.081 2.5328,0 5.021,-0.0278 7.4515,-0.081 1.8807,-0.0413 3.7259,-0.0982 5.5313,-0.1692 1.2594,-0.0496 2.4994,-0.1059 3.717,-0.1692 0.9987,-0.052 1.9825,-0.1085 2.9505,-0.1693 0.8452,-0.0531 1.6782,-0.1095 2.4983,-0.1691 0.7409,-0.0539 1.4713,-0.1104 2.1904,-0.1694 0.6612,-0.0542 1.3125,-0.1106 1.9543,-0.1691 0.5993,-0.0546 1.1898,-0.1111 1.7714,-0.1693 0.5487,-0.0549 1.0911,-0.1111 1.6236,-0.1691 0.5049,-0.055 1.0007,-0.1116 1.4904,-0.1693 0.4692,-0.0552 0.932,-0.1115 1.3866,-0.1692 0.436,-0.0553 0.8642,-0.1118 1.2865,-0.1693 0.4081,-0.0555 0.8115,-0.1118 1.2066,-0.1692 0.3807,-0.0554 0.7533,-0.112 1.1215,-0.1692 0.3582,-0.0556 0.7111,-0.1119 1.0571,-0.1692 0.3363,-0.0557 0.6683,-0.112 0.993,-0.1692 0.3162,-0.0557 0.625,-0.1123 0.9298,-0.1693 0.2975,-0.0558 0.5888,-0.1121 0.8751,-0.1692 0.2803,-0.0558 0.5557,-0.1122 0.8251,-0.1692 0.264,-0.0559 0.5238,-0.1122 0.7769,-0.1692 0.2484,-0.0559 0.4925,-0.1123 0.7305,-0.1692 0.2334,-0.0559 0.4605,-0.1125 0.6836,-0.1693 0.2194,-0.0559 0.4331,-0.1124 0.6425,-0.1692 0.206,-0.0561 0.4069,-0.1125 0.6029,-0.1693 0.1931,-0.056 0.3809,-0.1123 0.5641,-0.1691 0.1807,-0.0561 0.3564,-0.1125 0.5274,-0.1693 0.1685,-0.056 0.3325,-0.1123 0.4915,-0.1691 0.1572,-0.056 0.3095,-0.1125 0.457,-0.1693 0.1456,-0.056 0.2869,-0.1124 0.4232,-0.1692 0.1348,-0.0561 0.2648,-0.1126 0.3901,-0.1693 0.124,-0.0561 0.2434,-0.1126 0.358,-0.1692 0.1135,-0.0561 0.2223,-0.1125 0.3266,-0.1692 0.1032,-0.0561 0.2018,-0.1126 0.2959,-0.1692 0.0931,-0.0562 0.1814,-0.1125 0.2655,-0.1692 0.0834,-0.0563 0.1621,-0.1127 0.2364,-0.1693 0.0736,-0.0562 0.1426,-0.1126 0.207,-0.1692 0.0639,-0.0561 0.1236,-0.1126 0.1787,-0.1692 0.0546,-0.0562 0.1048,-0.1126 0.1503,-0.1693 0.0452,-0.0562 0.0861,-0.1126 0.1223,-0.1691 0.0361,-0.0562 0.0681,-0.1127 0.0951,-0.1693 0.0269,-0.0563 0.0497,-0.1127 0.0676,-0.1692 0.0177,-0.0563 0.032,-0.1127 0.0409,-0.1693 0.008,-0.055 0.0143,-0.1099 0.0143,-0.1652 l -3e-4,-0.004 c -2e-4,-0.0567 -0.005,-0.113 -0.014,-0.1693 -0.009,-0.0565 -0.0227,-0.1128 -0.0409,-0.1691 -0.0184,-0.0567 -0.0412,-0.1131 -0.0684,-0.1693 -0.0274,-0.0565 -0.0596,-0.1129 -0.0959,-0.1692 -0.0368,-0.0566 -0.0781,-0.113 -0.1238,-0.1693 -0.0461,-0.0565 -0.0968,-0.1131 -0.1519,-0.1692 -0.0555,-0.0566 -0.1158,-0.113 -0.1802,-0.1692 -0.065,-0.0567 -0.1349,-0.1131 -0.209,-0.1692 -0.0747,-0.0566 -0.1542,-0.113 -0.2379,-0.1692 -0.0848,-0.0566 -0.1744,-0.1132 -0.2681,-0.1694 -0.0945,-0.0566 -0.1942,-0.1129 -0.2978,-0.1691 -0.1048,-0.0567 -0.2144,-0.1131 -0.3285,-0.1692 -0.1153,-0.0567 -0.2353,-0.1131 -0.3599,-0.1693 -0.1258,-0.0567 -0.2564,-0.1131 -0.3916,-0.1691 -0.1368,-0.0567 -0.2783,-0.1132 -0.4246,-0.1693 -0.148,-0.0568 -0.3003,-0.1132 -0.4578,-0.1692 -0.1597,-0.0568 -0.3232,-0.1133 -0.4923,-0.1693 -0.1714,-0.0568 -0.3472,-0.1131 -0.5284,-0.1691 -0.184,-0.057 -0.3746,-0.1133 -0.5684,-0.1693 -0.1969,-0.0568 -0.3993,-0.1132 -0.6062,-0.1692 -0.2102,-0.057 -0.4251,-0.1134 -0.6453,-0.1693 -0.2236,-0.0568 -0.4515,-0.1132 -0.6855,-0.1691 -0.2386,-0.057 -0.482,-0.1134 -0.7311,-0.1693 -0.2543,-0.0571 -0.5154,-0.1133 -0.7803,-0.1693 -0.27,-0.0569 -0.5453,-0.1133 -0.8262,-0.1691 -0.287,-0.0569 -0.5774,-0.1136 -0.8757,-0.1692 -0.3062,-0.0572 -0.6207,-0.1135 -0.9384,-0.1693 -0.3256,-0.0572 -0.6566,-0.1136 -0.9941,-0.1693 -0.3466,-0.057 -0.6989,-0.1136 -1.0576,-0.1691 -0.3704,-0.0574 -0.7476,-0.1137 -1.1307,-0.1692 -0.3957,-0.0575 -0.7975,-0.1139 -1.2063,-0.1693 -0.4236,-0.0573 -0.8542,-0.1139 -1.2915,-0.1691 -0.4564,-0.0576 -0.9207,-0.114 -1.3917,-0.1693 -0.4917,-0.0577 -0.9904,-0.1142 -1.4974,-0.1692 -0.5339,-0.058 -1.0748,-0.1145 -1.625,-0.1693 -0.5843,-0.0582 -1.1781,-0.1145 -1.78,-0.1691 -0.6454,-0.0586 -1.3002,-0.115 -1.965,-0.1693 -0.724,-0.0591 -1.4602,-0.1154 -2.2062,-0.1693 -0.8261,-0.0596 -1.6653,-0.1161 -2.5169,-0.1692 -0.978,-0.0609 -1.972,-0.1173 -2.9812,-0.1691 -1.2315,-0.0634 -2.4851,-0.12 -3.7593,-0.1693 -1.8705,-0.0723 -3.7852,-0.129 -5.736,-0.1693 -0.2743,-0.006 -0.5486,-0.0113 -0.8244,-0.0163 -0.2578,-0.005 -0.5097,-0.0575 -0.7291,-0.1528 -0.1071,-0.0466 -0.2064,-0.1031 -0.295,-0.1692 -0.0644,-0.0481 -0.1231,-0.1012 -0.1748,-0.1591 l -0.009,-0.0102 -0.011,-0.0124 c -0.0454,-0.0512 -0.0839,-0.1036 -0.1168,-0.1569 -0.0342,-0.0556 -0.0619,-0.112 -0.0833,-0.1691 -0.021,-0.0562 -0.036,-0.1127 -0.045,-0.1692 -0.009,-0.0566 -0.0122,-0.1131 -0.01,-0.1693 0.002,-0.0569 0.0103,-0.1135 0.0236,-0.1691 0.0137,-0.0575 0.0334,-0.1142 0.0581,-0.1693 0.0262,-0.0582 0.0581,-0.1148 0.0956,-0.1693 0.0409,-0.0592 0.0881,-0.1159 0.1413,-0.1692 0.0609,-0.061 0.1298,-0.1178 0.2054,-0.1691 0.0978,-0.0663 0.207,-0.1236 0.326,-0.1693 0.2107,-0.0809 0.4516,-0.1259 0.7132,-0.1214 1.7123,0.0288 3.4029,0.07 5.0723,0.1214 1.5301,0.0472 3.0409,0.1036 4.5305,0.1693 1.1623,0.0511 2.313,0.107 3.4484,0.1691 0.9638,0.0526 1.917,0.1091 2.8601,0.1692 0.8402,0.0537 1.6727,0.1099 2.4954,0.1693 0.7468,0.0539 1.4842,0.1107 2.216,0.1693 0.68,0.0545 1.3537,0.1108 2.0202,0.1691 0.6243,0.0547 1.2421,0.111 1.8541,0.1693 0.5794,0.055 1.1544,0.1113 1.7223,0.1692 0.5384,0.055 1.0701,0.1116 1.5978,0.1691 0.5065,0.0553 1.0082,0.1116 1.5047,0.1693 0.4775,0.0554 0.9515,0.1117 1.4195,0.1693 0.4509,0.0555 0.8976,0.1118 1.3394,0.1692 0.4261,0.0554 0.8468,0.112 1.2643,0.1691 0.4056,0.0556 0.8063,0.1121 1.2035,0.1693 0.3864,0.0557 0.7683,0.1121 1.1466,0.1693 0.3683,0.0556 0.7326,0.112 1.0931,0.1691 0.352,0.0558 0.7,0.1122 1.0444,0.1692 0.3365,0.0558 0.6694,0.1122 0.9985,0.1693 0.3222,0.0558 0.6409,0.1123 0.9559,0.1693 0.3083,0.0557 0.6136,0.1122 0.9149,0.1691 0.296,0.0559 0.5888,0.1122 0.8779,0.1693 0.284,0.0559 0.5651,0.1123 0.8424,0.1692 0.2724,0.056 0.5425,0.1123 0.8083,0.1693 0.2611,0.0559 0.5199,0.1123 0.7745,0.1691 0.2507,0.0559 0.4968,0.1125 0.7412,0.1693 0.2408,0.0559 0.4774,0.1124 0.7118,0.1692 0.231,0.0559 0.4586,0.1123 0.6835,0.1691 0.2221,0.0561 0.4411,0.1125 0.6572,0.1693 0.2132,0.056 0.4244,0.1126 0.6316,0.1693 0.2049,0.0561 0.4088,0.1124 0.6077,0.1692 0.196,0.0561 0.3877,0.1125 0.5779,0.1691 0.188,0.0561 0.3717,0.1126 0.5541,0.1693 0.1805,0.0562 0.3578,0.1126 0.5325,0.1693 0.1729,0.0561 0.3439,0.1124 0.5111,0.1691 0.1655,0.0562 0.3303,0.1126 0.4901,0.1693 0.158,0.056 0.3108,0.1127 0.4632,0.1692 0.1511,0.0562 0.2984,0.1126 0.4441,0.1693 0.1443,0.0561 0.2866,0.1124 0.4253,0.1691 0.1378,0.0563 0.2756,0.1125 0.4079,0.1693 0.1308,0.0561 0.2559,0.1127 0.3812,0.1692 0.1245,0.0562 0.2453,0.1127 0.3642,0.1693 0.1181,0.0561 0.2349,0.1124 0.3476,0.1691 0.1119,0.0563 0.2222,0.1126 0.3288,0.1693 0.1056,0.0561 0.2062,0.1125 0.3065,0.1692 0.0996,0.0562 0.1965,0.1126 0.2909,0.1691 0.094,0.0563 0.1879,0.1126 0.2767,0.1694 0.0877,0.0562 0.1705,0.1126 0.2529,0.1692 0.0821,0.0561 0.1602,0.1127 0.2371,0.1692 0.0762,0.0563 0.1518,0.1126 0.223,0.1692 0.0708,0.0562 0.1385,0.1127 0.2039,0.1692 0.0651,0.0562 0.1256,0.1127 0.1854,0.1693 0.0595,0.0563 0.1181,0.1126 0.1725,0.1692 0.054,0.0563 0.1063,0.1126 0.1551,0.1693 0.0486,0.0561 0.092,0.1126 0.1353,0.1691 0.0433,0.0563 0.0851,0.1127 0.1232,0.1693 0.0378,0.0563 0.074,0.1126 0.1069,0.1691 0.0325,0.0563 0.0597,0.1128 0.0871,0.1693 0.0272,0.0563 0.0531,0.1127 0.0754,0.1692 0.022,0.0563 0.0422,0.1127 0.0594,0.1693 0.0169,0.0563 0.0282,0.1127 0.0401,0.1691 0.0116,0.0563 0.0213,0.1127 0.0286,0.1693 0.007,0.0564 0.01,0.1128 0.0119,0.1692 3e-4,0.0138 0.003,0.0274 0.003,0.0412 0,0.0427 -0.003,0.0854 -0.006,0.128 -0.004,0.0565 -0.0102,0.1129 -0.0194,0.1693 -0.009,0.0566 -0.0205,0.1129 -0.0349,0.1692 -0.0143,0.0565 -0.0312,0.1129 -0.0505,0.1692 -0.0195,0.0566 -0.0414,0.1129 -0.0659,0.1692 -0.0249,0.0565 -0.0521,0.1129 -0.0819,0.1692 -0.0301,0.0566 -0.0626,0.113 -0.0978,0.1693 -0.0354,0.0565 -0.0736,0.1129 -0.1141,0.1692 -0.0409,0.0566 -0.0846,0.113 -0.1305,0.1693 -0.0462,0.0565 -0.0953,0.113 -0.1466,0.1691 -0.0518,0.0566 -0.1062,0.113 -0.163,0.1693 -0.0571,0.0565 -0.117,0.1128 -0.1794,0.1691 -0.0627,0.0566 -0.1281,0.113 -0.1962,0.1693 -0.0682,0.0565 -0.1393,0.1129 -0.2129,0.1692 -0.0741,0.0566 -0.1506,0.113 -0.2299,0.1693 -0.0797,0.0565 -0.162,0.1131 -0.2471,0.1692 -0.0856,0.0566 -0.1733,0.113 -0.2641,0.1692 -0.0914,0.0565 -0.185,0.1129 -0.2818,0.1692 -0.0972,0.0566 -0.1968,0.113 -0.2994,0.1692 -0.1037,0.0566 -0.2108,0.1131 -0.3197,0.1693 -0.1096,0.0566 -0.2222,0.113 -0.3374,0.1692 -0.1159,0.0567 -0.235,0.1131 -0.3565,0.1692 -0.1223,0.0566 -0.2473,0.113 -0.3749,0.1692 -0.1288,0.0566 -0.2601,0.1131 -0.3944,0.1692 -0.1355,0.0567 -0.2729,0.1131 -0.4139,0.1693 -0.1423,0.0567 -0.2875,0.1131 -0.4353,0.1692 -0.1492,0.0567 -0.3021,0.1131 -0.457,0.1693 -0.1561,0.0567 -0.3153,0.113 -0.4771,0.1691 -0.1635,0.0567 -0.3295,0.1131 -0.4987,0.1693 -0.1709,0.0567 -0.3437,0.113 -0.5202,0.1691 -0.1789,0.0568 -0.3612,0.1132 -0.5459,0.1694 -0.1864,0.0567 -0.3762,0.1131 -0.5686,0.1691 -0.1947,0.0568 -0.3921,0.1133 -0.5926,0.1693 -0.2029,0.0567 -0.4078,0.1132 -0.6167,0.1692 -0.2117,0.0568 -0.4276,0.1131 -0.6453,0.1692 -0.2205,0.0568 -0.4444,0.1132 -0.6712,0.1692 -0.2299,0.0568 -0.4618,0.1134 -0.6979,0.1693 -0.2397,0.0568 -0.4838,0.1132 -0.7299,0.1693 -0.2496,0.0568 -0.5023,0.1132 -0.7583,0.1691 -0.2602,0.0568 -0.5232,0.1133 -0.79,0.1692 -0.2716,0.057 -0.5472,0.1134 -0.8255,0.1693 -0.2824,0.0568 -0.5672,0.1133 -0.8565,0.1691 -0.2958,0.0571 -0.5963,0.1132 -0.8989,0.1693 -0.308,0.0569 -0.6185,0.1135 -0.9337,0.1692 -0.3225,0.0571 -0.6497,0.1135 -0.9795,0.1693 -0.3362,0.0569 -0.6755,0.1135 -1.0192,0.1691 -0.3529,0.0572 -0.7101,0.1135 -1.0706,0.1693 -0.3694,0.0572 -0.7431,0.1135 -1.1203,0.1691 -0.3879,0.0572 -0.7795,0.1138 -1.1756,0.1694 -0.4077,0.0572 -0.8202,0.1135 -1.2364,0.1691 -0.4301,0.0573 -0.8651,0.1138 -1.3039,0.1693 l -0.2631,0.0334 h 0.006 c -0.0219,0.002 -0.0418,0.004 -0.0631,0.007 -0.3482,0.0437 -0.6992,0.0867 -1.0531,0.1291 l -0.4306,0.051 c -0.2701,0.0377 -0.5282,0.0773 -0.7771,0.1181 -0.3304,0.0541 -0.6419,0.1106 -0.9345,0.1692 -0.274,0.0548 -0.5316,0.1115 -0.772,0.1693 -0.2295,0.0553 -0.4446,0.1118 -0.6433,0.1693 -0.1924,0.0556 -0.3689,0.112 -0.5321,0.1691 -0.1603,0.056 -0.3066,0.1124 -0.4384,0.1692 -0.1305,0.0563 -0.2471,0.1128 -0.3494,0.1693 -0.1024,0.0565 -0.1902,0.1128 -0.2641,0.1691 -0.0745,0.0568 -0.1358,0.1134 -0.1808,0.1693 -0.0462,0.0572 -0.0758,0.1136 -0.0906,0.1692 -0.0155,0.0576 -0.014,0.1142 0.004,0.1693 0.0191,0.058 0.0567,0.1145 0.1136,0.1691 0.0612,0.0589 0.1446,0.1153 0.2499,0.1693 0.1169,0.0599 0.2604,0.1165 0.4323,0.1693 0.2035,0.0623 0.4458,0.1191 0.7276,0.1692 0.3984,0.0709 0.8764,0.1282 1.4341,0.1691 1.2171,0.0896 2.8173,0.1003 4.8176,0 0.4136,-0.0207 0.8426,-0.0456 1.2905,-0.0762 l 1.1182,-0.0929 c 0.7004,-0.0579 1.3788,-0.1139 2.0421,-0.1692 0.6752,-0.0565 1.3347,-0.1124 1.9851,-0.1693 0.6256,-0.0549 1.2429,-0.1108 1.858,-0.1693 0.5666,-0.0538 1.1315,-0.1097 1.6993,-0.1691 0.5119,-0.0535 1.0262,-0.1096 1.5463,-0.1693 0.4653,-0.0534 0.9354,-0.1096 1.4126,-0.1692 0.4283,-0.0536 0.8625,-0.1098 1.3043,-0.1693 0.3984,-0.0537 0.8032,-0.1099 1.2155,-0.1691 0.3755,-0.0539 0.7571,-0.1103 1.1461,-0.1693 0.3569,-0.0541 0.72,-0.1104 1.0897,-0.1692 l 0.3872,-0.0621 c 0.2438,-0.0394 0.4773,-0.0743 0.7056,-0.107 0.4946,-0.0709 0.9551,-0.1275 1.3787,-0.1693 1.4105,-0.1392 2.4334,-0.124 3.1149,0 0.2399,0.0436 0.4368,0.1008 0.5943,0.1693 0.1161,0.0504 0.2099,0.107 0.2831,0.1691 0.0624,0.0528 0.1103,0.1091 0.1427,0.1692 0.029,0.0538 0.0457,0.1105 0.0515,0.1693 0.005,0.0545 8e-4,0.1109 -0.013,0.1691 -0.0132,0.055 -0.0345,0.1116 -0.0642,0.1693 -0.0286,0.0554 -0.0638,0.1117 -0.1071,0.1692 -0.0419,0.0556 -0.0906,0.1121 -0.146,0.1693 -0.0539,0.0558 -0.1151,0.1122 -0.1814,0.1691 -0.0652,0.0561 -0.1363,0.1125 -0.2132,0.1693 -0.0761,0.0562 -0.1567,0.1126 -0.2439,0.1693 -0.0866,0.0562 -0.1799,0.1128 -0.2771,0.1692 -0.0973,0.0564 -0.1996,0.1128 -0.3072,0.1691 -0.1083,0.0567 -0.2204,0.1131 -0.3387,0.1693 -0.1198,0.0568 -0.2457,0.1132 -0.3755,0.1693 -0.1322,0.057 -0.2695,0.1133 -0.4116,0.1691 -0.1458,0.0572 -0.2963,0.1137 -0.4522,0.1692 -0.1613,0.0575 -0.3273,0.114 -0.499,0.1693 -0.18,0.0578 -0.3655,0.1142 -0.5564,0.1693 -0.2022,0.0582 -0.4106,0.1146 -0.6245,0.1691 -0.2322,0.0591 -0.4716,0.1154 -0.717,0.1692 -0.2741,0.0602 -0.5564,0.1166 -0.8457,0.1693 -0.3429,0.0623 -0.6963,0.1189 -1.0588,0.1691 l -0.1508,0.0211 c -0.3776,0.0501 -0.7561,0.0993 -1.135,0.1482 -0.4425,0.0572 -0.8858,0.1136 -1.3302,0.1693 -0.457,0.0571 -0.915,0.1136 -1.374,0.1692 -0.4723,0.0572 -0.9454,0.1135 -1.4201,0.1691 -0.4897,0.0574 -0.9807,0.1138 -1.4727,0.1693 -0.5083,0.0573 -1.0182,0.1137 -1.5292,0.1693 -0.5296,0.0574 -1.0606,0.1138 -1.593,0.1692 -0.5526,0.0575 -1.107,0.1139 -1.6629,0.1691 -0.5801,0.0577 -1.162,0.1142 -1.7459,0.1693 -0.6105,0.0577 -1.2228,0.1142 -1.8374,0.1693 -0.6464,0.0578 -1.2951,0.1141 -1.9462,0.1691 -0.6882,0.0581 -1.3794,0.1145 -2.0733,0.1692 -0.7391,0.0584 -1.4816,0.1148 -2.2273,0.1693 -0.8005,0.0586 -1.6047,0.115 -2.4132,0.1693 -0.8796,0.0589 -1.7641,0.1154 -2.6536,0.1691 -0.985,0.0596 -1.9762,0.116 -2.9737,0.1693 -1.1343,0.0605 -2.277,0.1169 -3.4282,0.1692 -1.3724,0.0623 -2.7572,0.1187 -4.1548,0.1693 -1.8437,0.0666 -3.7103,0.123 -5.6008,0.1691 z"
         style="fill:#0083c3;fill-rule:evenodd"
         id="path5" />
      <path
         d="m 365.1774,307.8773 c -0.3287,0.0286 -0.6426,0.0332 -0.9174,0 -0.2281,-0.0277 -0.4291,-0.0814 -0.5886,-0.1694 -0.0843,-0.0466 -0.157,-0.1028 -0.2161,-0.1694 -0.0444,-0.0502 -0.0809,-0.1066 -0.1091,-0.1694 -0.012,-0.0265 -0.0229,-0.0539 -0.0315,-0.0828 -0.009,-0.0291 -0.0152,-0.0581 -0.0204,-0.0867 -0.0105,-0.0575 -0.0145,-0.1139 -0.0115,-0.1694 0.003,-0.0576 0.0135,-0.114 0.03,-0.1694 0.0174,-0.0577 0.0414,-0.1142 0.0721,-0.1695 0.032,-0.0577 0.0707,-0.1142 0.1158,-0.1694 0.0474,-0.0579 0.1016,-0.1144 0.1617,-0.1694 0.0634,-0.0581 0.1336,-0.1146 0.2092,-0.1694 0.0806,-0.0583 0.1673,-0.115 0.2594,-0.1695 0.0989,-0.0587 0.2037,-0.1151 0.3128,-0.1694 0.1192,-0.0591 0.2433,-0.1155 0.3706,-0.1693 0.1415,-0.0598 0.2869,-0.1163 0.4334,-0.1694 0.1682,-0.0609 0.3377,-0.1175 0.5045,-0.1694 0.2028,-0.0632 0.4011,-0.1198 0.588,-0.1695 0.2633,-0.0701 0.5032,-0.1266 0.699,-0.1694 0.1367,-0.0298 0.252,-0.0531 0.3382,-0.0695 l 0.5349,-0.0999 c 0.308,-0.0571 0.6176,-0.1135 0.9295,-0.1695 0.3178,-0.0571 0.6375,-0.1135 0.9593,-0.1694 0.3282,-0.0571 0.6585,-0.1135 0.9907,-0.1694 0.3392,-0.057 0.6804,-0.1135 1.0237,-0.1694 0.3507,-0.057 0.7039,-0.1136 1.0589,-0.1694 0.3636,-0.057 0.7291,-0.1136 1.0972,-0.1693 0.3769,-0.0572 0.7559,-0.1138 1.1375,-0.1696 0.391,-0.0571 0.7846,-0.1136 1.1804,-0.1693 0.4067,-0.0574 0.8161,-0.1138 1.2279,-0.1694 0.4238,-0.0573 0.8499,-0.1139 1.2787,-0.1695 0.4414,-0.0575 0.8854,-0.1139 1.3322,-0.1694 0.4618,-0.0575 0.9269,-0.1139 1.3942,-0.1694 0.4834,-0.0575 0.9694,-0.114 1.4584,-0.1694 0.5088,-0.0577 1.0212,-0.1141 1.5362,-0.1695 0.5356,-0.0576 1.0743,-0.1141 1.6162,-0.1694 0.5671,-0.0578 1.1375,-0.1142 1.7114,-0.1694 0.6028,-0.0578 1.2093,-0.1144 1.8192,-0.1694 0.6457,-0.0581 1.2957,-0.1146 1.9492,-0.1695 0.6956,-0.0583 1.3955,-0.1147 2.0995,-0.1694 0.7568,-0.0587 1.5186,-0.1151 2.2847,-0.1694 0.8355,-0.0592 1.6764,-0.1156 2.5226,-0.1695 0.9397,-0.0597 1.8856,-0.1161 2.8375,-0.1694 1.0887,-0.0607 2.1852,-0.1173 3.2888,-0.1693 l 0.1313,-0.006 c 0.2038,-0.01 0.5411,-0.0105 0.9368,0.006 0.5022,0.0213 1.0985,0.0713 1.6356,0.1693 0.2492,0.0456 0.4856,0.1014 0.694,0.1694 0.1523,0.0498 0.29,0.106 0.4063,0.1695 0.0942,0.0516 0.1747,0.108 0.2382,0.1694 0.0542,0.0526 0.0961,0.109 0.1238,0.1694 0.0244,0.0534 0.0376,0.1098 0.0381,0.1695 l 3e-4,0.0108 c -8e-4,0.0552 -0.007,0.1079 -0.0175,0.1586 -0.0124,0.0595 -0.0311,0.116 -0.0564,0.1694 -0.0284,0.0601 -0.0653,0.1164 -0.1091,0.1694 -0.0506,0.0609 -0.111,0.1172 -0.1807,0.1695 -0.0824,0.0618 -0.1779,0.1181 -0.2855,0.1694 -0.1336,0.0636 -0.2858,0.1195 -0.4548,0.1694 -0.2247,0.0664 -0.4791,0.1216 -0.7583,0.1694 -0.4057,0.0693 -0.8642,0.1224 -1.361,0.1695 -0.1288,0.0121 -0.2598,0.024 -0.3934,0.0355 -0.5208,0.0452 -1.0398,0.0897 -1.5575,0.1339 -0.6718,0.0571 -1.3412,0.1136 -2.0077,0.1693 l -2.0388,0.1696 -2.0525,0.1693 -2.0549,0.1694 c -0.6835,0.0564 -1.3632,0.1129 -2.0393,0.1694 -0.6732,0.0563 -1.3427,0.1127 -2.0082,0.1694 -0.6579,0.056 -1.312,0.1125 -1.962,0.1694 -0.6387,0.0559 -1.2734,0.1123 -1.904,0.1695 -0.6158,0.0558 -1.2278,0.1121 -1.8356,0.1694 -0.5903,0.0556 -1.1767,0.1119 -1.7591,0.1694 -0.5643,0.0555 -1.1247,0.1119 -1.6814,0.1695 -0.5373,0.0555 -1.071,0.1119 -1.6008,0.1694 -0.5104,0.0554 -1.0173,0.1118 -1.5205,0.1694 -0.484,0.0554 -0.9646,0.1118 -1.4419,0.1693 -0.4593,0.0554 -0.9157,0.1119 -1.3686,0.1694 -0.4355,0.0554 -0.8676,0.1118 -1.297,0.1695 -0.4125,0.0554 -0.822,0.1119 -1.2288,0.1694 -0.3914,0.0554 -0.7805,0.1117 -1.1665,0.1694 -0.3716,0.0554 -0.7408,0.1118 -1.1072,0.1694 -0.353,0.0554 -0.7032,0.1121 -1.0514,0.1695 -0.3353,0.0554 -0.6685,0.1118 -0.9994,0.1694 -0.3193,0.0555 -0.6365,0.1121 -0.9514,0.1694 -0.1557,0.0284 -0.311,0.0569 -0.4655,0.0858 -0.0834,0.0156 -0.2076,0.0454 -0.3619,0.0837 -0.1892,0.047 -0.4243,0.1068 -0.687,0.1694 -0.239,0.0569 -0.5007,0.1159 -0.7715,0.1694 -0.3734,0.0738 -0.7641,0.137 -1.1362,0.1694 z"
         style="fill:#0083c3;fill-rule:evenodd"
         id="path6" />
    </g>
    <path
       d="m 395.0388,217.0304 22.8345,-8.3344 1.5233,-0.5559 V 194.883 l -1.5233,0.5559 -22.8345,8.3344 z m 27.4042,-8.8903 1.5236,0.5559 22.8342,8.3344 v -13.2571 l -22.8342,-8.3344 -1.5236,-0.5559 z"
       style="fill:#e95010;fill-rule:evenodd"
       id="path7" />
    <g
       id="Layer1002">
      <path
         d="m 395.0389,220.0137 -21.8411,7.9716 v 18.0726 l 21.8411,-7.9716 z"
         style="fill:#e95010;fill-rule:evenodd"
         id="path8" />
      <path
         d="m 446.8009,220.0137 21.8411,7.9716 v 18.0726 l -21.8411,-7.9716 z"
         style="fill:#e95010;fill-rule:evenodd"
         id="path9" />
      <g
         id="Layer1003">
        <path
           d="m 398.0855,218.9016 v 18.0727 l 21.3111,-7.7782 v -18.0726 z"
           style="fill:#e95010;fill-rule:evenodd"
           id="path10" />
        <path
           d="m 443.7542,218.9016 v 18.0727 l -21.311,-7.7782 v -18.0726 z"
           style="fill:#e95010;fill-rule:evenodd"
           id="path11" />
      </g>
    </g>
    <path
       d="m 432.591,193.2401 v -3.2321 l -11.6711,-4.2596 -11.671,4.2596 -3e-4,1.688 3e-4,1.5441 v 2.3626 l 2.8142,-1.027 4.769,-1.7407 4.087,-1.4916 4.0873,1.4916 4.7704,1.7413 2.8142,1.027 z"
       style="fill:#e95010;fill-rule:evenodd"
       id="path12" />
    <path
       d="m 458.0768,258.2655 18.0135,6.5802 c 4.9962,-10.1005 5.8076,-17.1501 5.8076,-17.1501 l -60.978,-22.2749 -60.978,22.2749 c 0,0 4.6916,40.7618 60.978,66.6868 13.0233,-5.9985 23.2845,-12.7912 31.3646,-19.6895 5.5834,-4.7667 10.1252,-9.5839 13.8174,-14.2243 l -17.3706,-6.3454 -14.511,-5.3007 c -3.0007,4.5364 -7.2567,9.5456 -13.2797,14.4207 l 12.3114,4.4972 c -3.603,2.3771 -7.6921,4.0932 -12.3321,6.2303 -23.4704,-11.5018 -33.7053,-27.0129 -37.1569,-35.7052 l 37.1569,-13.5732 z"
       style="fill:#004088;fill-rule:evenodd"
       id="path13" />
  </g>
</svg>
